<svg xmlns="http://www.w3.org/2000/svg" width="189.23" height="211.204" viewBox="0 0 189.23 211.204">
  <g id="Layer_1" data-name="Layer 1" transform="translate(0.001)">
    <g id="Group_7" data-name="Group 7" transform="translate(-0.001 0)">
      <path id="Path_127" data-name="Path 127" d="M82.334.52,60.8,34.16l-46.4,1.32,5.886,8.912L8.04,83.423,9.058,95.361l3.3,16.751L30.7,134.419l24.783,18.787L72.6,160.082l9.462,17.879L90.7,160.907l15.211-11.03,19.309-11.112,17.136-17.274,9.957-16.119,2.613-4.263L156.847,83.2,145.763,45.795l5.776-13.781-46.98,1.238Z" transform="translate(14.079 0.91)" fill="#fff"/>
      <path id="Path_128" data-name="Path 128" d="M23.171,59.73,21.74,58.3s-1.98,3.136,0,5.391l1.925,6.024,4.346,11.91,3.631,3.081,7.619,4.566L44.6,95.846l-2.943,1.568,1.815,9.9,14.221-2.2L56.4,99.229,55.1,93.59l-1.348-1.98-.77-8.252L51.5,76.812l-4.043-6.684L43.525,64.1l-2.2-1.54-1.843,1.788.77,7.564.165,1.128.083,1.045,1.155,2.118.633,2.09H38l-1.43-1.76-2.751-7.592-2.558-.715L28.2,64.736l-2.778-2.586L23.2,59.758Z" transform="translate(36.521 102.06)" fill="#fff"/>
      <path id="Path_129" data-name="Path 129" d="M50.568,64.279,46.25,68.79l-2.613,4.456L39.648,79.82l-.99,6.684v7.069l-1.6,1.9L35.77,98.084l1.073,2.613,8.224,1.9,6.106-2.916V95.471l-.935-.99,4.4-5.941,4.566-2.723,4.373-7.179,3.851-11.608,1.623-5.721.743-3.108-2.806-.11-2.641,4.456L59.48,64.224l-1.733,4.1L55.3,75.8l-5.721,3.851,2.668-7.207,1.238-4.4-1.4-3.961Z" transform="translate(62.623 101.692)" fill="#fff"/>
      <g id="Group_2" data-name="Group 2">
        <path id="Path_102" data-name="Path 102" d="M58.245,103.636a71.272,71.272,0,0,1-1.815-8.252,1.931,1.931,0,0,0-.523-1.293c-1.32-.99-1.183-2.366-1.183-3.713A32.679,32.679,0,0,0,49.8,72.829c-.853-1.43-1.733-2.861-2.586-4.291A23.94,23.94,0,0,0,43.172,63.2a2.345,2.345,0,0,0-3.3-.193,2.257,2.257,0,0,0-.66,1.018,7.42,7.42,0,0,0-.193,4.373,32.4,32.4,0,0,0,2.448,8.5c.193.358.715,1.018-.193,1.238a4.166,4.166,0,0,1-3.713-2.283,27.59,27.59,0,0,0-2.5-5.776c-.605-1.128-1.293-2.421-3-2.173-.33.055-.5-.193-.633-.468a11.172,11.172,0,0,0-3.081-3.8A7.78,7.78,0,0,1,24.935,59.9c-.193-.605-.935-1.073-1.513-1.485-1.183-.825-2.311-.275-2.613,1.128a12.332,12.332,0,0,0,.935,6.739c1.4,4.208,3.136,8.307,4.456,12.543a12.325,12.325,0,0,0,6.546,7.564,37.624,37.624,0,0,1,7.867,5.226,24.8,24.8,0,0,1,2.888,3c.55.715.8,1.265-.413,1.623-.853.248-1.4.853-1.128,1.65.33,3.823.99,7.4,1.1,11.03,0,.523.5.908.853.578.743-.66,1.623-.413,2.421-.605a35.941,35.941,0,0,1,10.837-1.183,1.158,1.158,0,0,0,1.183-1.1v-.11a9.6,9.6,0,0,0-.083-2.806h0v-.055h0ZM32.664,69.474c.33-.22.66,0,.825.3a20.93,20.93,0,0,1,3,6.574,2.07,2.07,0,0,1-2.228-1.513c-.523-1.513-1.1-3.026-1.65-4.566C32.527,70,32.389,69.639,32.664,69.474Zm-1.183,1.788c.248,0,.33.275.44.5,0,.22-.083.385-.3.385-.358,0-.413-.33-.468-.578S31.289,71.234,31.482,71.261Zm-4.9-6.9s.22-.193.275-.165c.44.193.523.523.633.908a4.265,4.265,0,0,1,.3,1.54,2.468,2.468,0,0,1-.77-1.375C26.833,64.935,26.5,64.8,26.586,64.357ZM33.71,85.4a12.886,12.886,0,0,1-6.849-8.527c-.8-2.888-2.09-5.639-3.136-8.444-.22-.633-1.183-1.513.275-1.98.11,0,.165-.44.138-.66-.11-.935-.275-1.9-.44-2.833-.083-.523-.275-1.018-.935-.523-.715.523-.66,0-.715-.44v-.413c.138-.605-.248-1.54.55-1.76s1.018.715,1.293,1.293C25.6,64.578,27.136,68.1,28.566,71.7a9.246,9.246,0,0,0,6.271,5.584c.908.275,1.76.88,2.558,1.1a16.222,16.222,0,0,0,5.2,1.293c.99-.083.578-.908.385-1.43a66.32,66.32,0,0,1-2.558-8.637,8.735,8.735,0,0,1-.193-4.373,3.862,3.862,0,0,1,.358-.935.971.971,0,0,1,.468-.413.839.839,0,0,1,.633,0c.605.193.248.633.138.963a4.385,4.385,0,0,0,.633,4.4,1.5,1.5,0,0,0,2.118.22.085.085,0,0,0,.055-.027c.33-.33.248-.715-.138-.77-2.2-.44-1.98-1.953-1.623-3.548a.889.889,0,0,1,.468.083,1.03,1.03,0,0,1,.33.358,59.929,59.929,0,0,1,8.472,15.513A66.339,66.339,0,0,1,53.762,93.4c.055.633-.22.908-.8,1.128A34.411,34.411,0,0,1,46.087,95.8c-.468.055-.688-.193-.908-.55A27.753,27.753,0,0,0,33.572,85.51h0l.138-.11h0ZM52.166,98.327c.66-.028.5.578.633.908.055.413-.083.743-.5.743-.66.027-.523-.578-.633-.935a.388.388,0,0,1-.028-.248.444.444,0,0,1,.083-.248.574.574,0,0,1,.44-.22h0Zm-.935-1.678c0-.33,0-.715.5-.688.605.028.5.605.633.935.055.5-.22.605-.605.578-.578,0-.523-.468-.55-.825h.028ZM50.1,98.905c.77-.083.825.468.853.99.055.8-.633.633-1.073.77-.688.083-.605-.385-.66-.8-.138-.688.275-.88.853-.963Zm-1.018-1.6c.193-.358,0-1.1.715-.963.605.138.468.853.578,1.32.11.523-.385.578-.77.578-.66-.055-.605-.5-.523-.963h0ZM45.7,103.691c-.55,0-.688-.385-.688-.853s.11-.853.935-.825c.44.028.385.578.44,1.018S46.142,103.719,45.7,103.691Zm-2.311-6.134c.358.083.385.358.385.66,0,.193-.055.385-.275.385-.358,0-.468-.248-.5-.55v-.165s.055-.083.083-.138a.275.275,0,0,1,.138-.11c.055,0,.11-.055.165-.055h0Zm-.193,3.026c0-.33-.193-.825.385-.88.358-.028.44.275.468.578s.22.77-.275.963c-.468,0-.55-.33-.55-.66h0Zm.605,2.751c-.385.055-.385-.33-.385-.605s-.083-.605.275-.66c.44-.055.358.33.385.578-.055.248.083.633-.3.66H43.8Zm1.485-5.556c.248,0,.5.083.523.358.055.358-.22.44-.523.468h-.165s-.083-.055-.138-.083c-.055-.055-.083-.083-.083-.138s-.028-.11,0-.165a.39.39,0,0,1,.33-.413h.055Zm.248,1.705c.935-.083.605.66.578,1.045-.055.44-.3.908-.908.44-.165-.55-.688-1.183.3-1.485Zm.193,7.207c-.935-.027-.688-.715-.715-1.238-.083-.66.248-1.045.88-1.018.935.055.688.853.77,1.43.11.77-.358.88-.963.853h.028Zm1.843-10.122c.8-.083.358.578.523.8,0,.523.165,1.045-.523,1.073-.605,0-.66-.44-.633-.88s.083-.908.633-.963h0Zm.138,2.668c.688.027.633.55.688,1.018.055.523-.193.825-.715.8-.743-.055-.468-.715-.578-1.1C46.968,99.483,47.243,99.263,47.71,99.235Zm-.523,3.3c-.055-.578.275-.743.77-.77.66,0,.578.523.605.908.083.55-.275.77-.935.77-.5,0-.413-.523-.468-.908Zm1.183,3.8c-1.1,0-.605-.935-.853-1.4-.083-.743.385-.88.853-.825.935.11.688.99.825,1.54s-.44.66-.853.688h.028Zm.99-4.263c-.11-.88.715-.77,1.183-.853.908-.193.468.743.8.99-.083.908-.8.853-1.293.908-.715.055-.66-.633-.715-1.045h0Zm1.678,3.741c-1.293.138-.963-.908-1.128-1.458-.248-.935.715-.8,1.128-.8,1.018-.027.853.99.99,1.568.193.88-.715.5-1.045.688Zm1.045-4.263c-.138-.5,0-.825.44-.963.77-.028.66.578.8.99.22.578-.11.77-.605.825-.715.083-.55-.5-.66-.853h.028Zm1.4,3.713c-.908-.11-.688-1.018-.935-1.568-.248-.5.248-.715.633-.715,1.1,0,.55,1.018.853,1.4,0,.523-.055.963-.55.908h0Zm.8-9.6c-.11-.413.193-.578.5-.66.5.055.578.358.605.688a.675.675,0,0,1-.523.77h-.11c-.605.055-.413-.5-.468-.8Zm.5,2.558c-.138-.413.248-.523.633-.688.385.083.413.468.468.825s.055.8-.468.8c-.605,0-.523-.578-.633-.935h0Zm.468,2.613c0-.358,0-.688.468-.715.578-.055.715.33.8.8s-.138.605-.523.578c-.55.083-.743-.193-.77-.66h0Zm.963,2.806c-.44.055-.523-.33-.55-.66-.055-.578.413-.688.825-.715s.385.44.5.715c0,.523-.44.605-.77.633h0Z" transform="translate(36.214 101.586)" fill="#db4437"/>
        <path id="Path_103" data-name="Path 103" d="M48.185,70.153a.1.1,0,0,0,.055.083c.028,0,.055,0,.083.055l-.138-.11h0Zm-.468-.44s.3.275.468.44C48.1,69.961,48.185,69.575,47.718,69.713Zm.468.44a.1.1,0,0,0,.055.083c.028,0,.055,0,.083.055l-.138-.11h0Zm0,0a.1.1,0,0,0,.055.083c.028,0,.055,0,.083.055l-.138-.11h0Zm-.468-.44s.3.275.468.44C48.1,69.961,48.185,69.575,47.718,69.713Zm0,0s.3.275.468.44C48.1,69.961,48.185,69.575,47.718,69.713Zm.468.44a.1.1,0,0,0,.055.083c.028,0,.055,0,.083.055l-.138-.11h0Zm0,0a.1.1,0,0,0,.055.083c.028,0,.055,0,.083.055l-.138-.11h0Zm-.468-.44s.3.275.468.44C48.1,69.961,48.185,69.575,47.718,69.713Zm0,0s.3.275.468.44C48.1,69.961,48.185,69.575,47.718,69.713Zm.468.44a.1.1,0,0,0,.055.083c.028,0,.055,0,.083.055l-.138-.11h0Zm0,0a.1.1,0,0,0,.055.083c.028,0,.055,0,.083.055l-.138-.11h0Zm-.468-.44s.3.275.468.44C48.1,69.961,48.185,69.575,47.718,69.713Zm0,0s.3.275.468.44C48.1,69.961,48.185,69.575,47.718,69.713Zm.468.44a.1.1,0,0,0,.055.083c.028,0,.055,0,.083.055l-.138-.11h0Zm0,0a.1.1,0,0,0,.055.083c.028,0,.055,0,.083.055l-.138-.11h0Zm-.468-.44s.3.275.468.44C48.1,69.961,48.185,69.575,47.718,69.713Zm0,0s.3.275.468.44C48.1,69.961,48.185,69.575,47.718,69.713Zm.468.44a.1.1,0,0,0,.055.083c.028,0,.055,0,.083.055l-.138-.11h0Zm0,0a.1.1,0,0,0,.055.083c.028,0,.055,0,.083.055l-.138-.11h0Zm-.468-.44s.3.275.468.44C48.1,69.961,48.185,69.575,47.718,69.713Zm0,0s.3.275.468.44C48.1,69.961,48.185,69.575,47.718,69.713Zm.468.44a.1.1,0,0,0,.055.083c.028,0,.055,0,.083.055l-.138-.11h0Zm0,0a.1.1,0,0,0,.055.083c.028,0,.055,0,.083.055l-.138-.11h0Zm-.468-.44s.3.275.468.44C48.1,69.961,48.185,69.575,47.718,69.713Zm0,0s.3.275.468.44C48.1,69.961,48.185,69.575,47.718,69.713Zm.468.44a.1.1,0,0,0,.055.083c.028,0,.055,0,.083.055l-.138-.11h0Zm0,0a.1.1,0,0,0,.055.083c.028,0,.055,0,.083.055l-.138-.11h0Zm-.468-.44s.3.275.468.44C48.1,69.961,48.185,69.575,47.718,69.713Zm0,0s.3.275.468.44C48.1,69.961,48.185,69.575,47.718,69.713Zm.468.44a.1.1,0,0,0,.055.083c.028,0,.055,0,.083.055l-.138-.11h0Zm0,0a.1.1,0,0,0,.055.083c.028,0,.055,0,.083.055l-.138-.11h0Zm-.468-.44s.3.275.468.44C48.1,69.961,48.185,69.575,47.718,69.713Zm0,0s.3.275.468.44C48.1,69.961,48.185,69.575,47.718,69.713Zm.468.44a.1.1,0,0,0,.055.083c.028,0,.055,0,.083.055l-.138-.11h0Zm0,0a.1.1,0,0,0,.055.083c.028,0,.055,0,.083.055l-.138-.11h0Zm-.468-.44s.3.275.468.44C48.1,69.961,48.185,69.575,47.718,69.713Zm0,0s.3.275.468.44C48.1,69.961,48.185,69.575,47.718,69.713Zm.468.44a.1.1,0,0,0,.055.083c.028,0,.055,0,.083.055l-.138-.11h0Zm0,0a.1.1,0,0,0,.055.083c.028,0,.055,0,.083.055l-.138-.11h0Zm-.468-.44s.3.275.468.44C48.1,69.961,48.185,69.575,47.718,69.713Zm0,0s.3.275.468.44C48.1,69.961,48.185,69.575,47.718,69.713Zm.468.44a.1.1,0,0,0,.055.083c.028,0,.055,0,.083.055l-.138-.11h0Zm0,0a.1.1,0,0,0,.055.083c.028,0,.055,0,.083.055l-.138-.11h0Zm-.468-.44s.3.275.468.44C48.1,69.961,48.185,69.575,47.718,69.713Zm0,0s.3.275.468.44C48.1,69.961,48.185,69.575,47.718,69.713Zm.468.44a.1.1,0,0,0,.055.083c.028,0,.055,0,.083.055l-.138-.11h0Zm0,0a.1.1,0,0,0,.055.083c.028,0,.055,0,.083.055l-.138-.11h0Zm-.468-.44s.3.275.468.44C48.1,69.961,48.185,69.575,47.718,69.713Zm0,0s.3.275.468.44C48.1,69.961,48.185,69.575,47.718,69.713Zm.468.44a.1.1,0,0,0,.055.083c.028,0,.055,0,.083.055l-.138-.11h0Zm0,0a.1.1,0,0,0,.055.083c.028,0,.055,0,.083.055l-.138-.11h0Zm-.468-.44s.3.275.468.44C48.1,69.961,48.185,69.575,47.718,69.713Zm0,0s.3.275.468.44C48.1,69.961,48.185,69.575,47.718,69.713Zm.468.44a.1.1,0,0,0,.055.083c.028,0,.055,0,.083.055l-.138-.11h0Zm0,0a.1.1,0,0,0,.055.083c.028,0,.055,0,.083.055l-.138-.11h0Zm-.468-.44s.3.275.468.44C48.1,69.961,48.185,69.575,47.718,69.713Zm0,0s.3.275.468.44C48.1,69.961,48.185,69.575,47.718,69.713Zm.468.44a.1.1,0,0,0,.055.083c.028,0,.055,0,.083.055l-.138-.11h0Zm0,0a.1.1,0,0,0,.055.083c.028,0,.055,0,.083.055l-.138-.11h0Zm-.468-.44s.3.275.468.44C48.1,69.961,48.185,69.575,47.718,69.713Zm0,0s.3.275.468.44C48.1,69.961,48.185,69.575,47.718,69.713Zm.468.44a.1.1,0,0,0,.055.083c.028,0,.055,0,.083.055l-.138-.11h0Zm0,0a.1.1,0,0,0,.055.083c.028,0,.055,0,.083.055l-.138-.11h0Zm-.468-.44s.3.275.468.44C48.1,69.961,48.185,69.575,47.718,69.713Zm0,0s.3.275.468.44C48.1,69.961,48.185,69.575,47.718,69.713Zm.468.44a.1.1,0,0,0,.055.083c.028,0,.055,0,.083.055l-.138-.11h0Zm0,0a.1.1,0,0,0,.055.083c.028,0,.055,0,.083.055l-.138-.11h0Zm-.468-.44s.3.275.468.44C48.1,69.961,48.185,69.575,47.718,69.713Zm0,0s.3.275.468.44C48.1,69.961,48.185,69.575,47.718,69.713Zm.468.44a.1.1,0,0,0,.055.083c.028,0,.055,0,.083.055l-.138-.11h0Zm0,0a.1.1,0,0,0,.055.083c.028,0,.055,0,.083.055l-.138-.11h0Zm-.468-.44s.3.275.468.44C48.1,69.961,48.185,69.575,47.718,69.713Zm0,0s.3.275.468.44C48.1,69.961,48.185,69.575,47.718,69.713Zm.468.44a.1.1,0,0,0,.055.083c.028,0,.055,0,.083.055l-.138-.11h0Zm0,0a.1.1,0,0,0,.055.083c.028,0,.055,0,.083.055l-.138-.11h0Zm-.468-.44s.3.275.468.44C48.1,69.961,48.185,69.575,47.718,69.713Zm0,0s.3.275.468.44C48.1,69.961,48.185,69.575,47.718,69.713Zm.468.44a.1.1,0,0,0,.055.083c.028,0,.055,0,.083.055l-.138-.11h0Zm0,0a.1.1,0,0,0,.055.083c.028,0,.055,0,.083.055l-.138-.11h0Zm-.468-.44s.3.275.468.44C48.1,69.961,48.185,69.575,47.718,69.713Zm0,0s.3.275.468.44C48.1,69.961,48.185,69.575,47.718,69.713Zm.468.44a.1.1,0,0,0,.055.083c.028,0,.055,0,.083.055l-.138-.11h0Zm0,0a.1.1,0,0,0,.055.083c.028,0,.055,0,.083.055l-.138-.11h0Zm-.468-.44s.3.275.468.44C48.1,69.961,48.185,69.575,47.718,69.713Zm0,0s.3.275.468.44C48.1,69.961,48.185,69.575,47.718,69.713Zm.468.44a.1.1,0,0,0,.055.083c.028,0,.055,0,.083.055l-.138-.11h0Zm0,0a.1.1,0,0,0,.055.083c.028,0,.055,0,.083.055l-.138-.11h0Zm-.468-.44s.3.275.468.44C48.1,69.961,48.185,69.575,47.718,69.713Zm0,0s.3.275.468.44C48.1,69.961,48.185,69.575,47.718,69.713Zm.468.44a.1.1,0,0,0,.055.083c.028,0,.055,0,.083.055l-.138-.11h0Zm0,0a.1.1,0,0,0,.055.083c.028,0,.055,0,.083.055l-.138-.11h0Zm-.468-.44s.3.275.468.44C48.1,69.961,48.185,69.575,47.718,69.713Zm0,0s.3.275.468.44C48.1,69.961,48.185,69.575,47.718,69.713Zm.468.44a.1.1,0,0,0,.055.083c.028,0,.055,0,.083.055l-.138-.11h0Zm0,0a.1.1,0,0,0,.055.083c.028,0,.055,0,.083.055l-.138-.11h0Zm-.468-.44s.3.275.468.44C48.1,69.961,48.185,69.575,47.718,69.713Zm0,0s.3.275.468.44C48.1,69.961,48.185,69.575,47.718,69.713Zm.468.44a.1.1,0,0,0,.055.083c.028,0,.055,0,.083.055l-.138-.11h0Zm0,0a.1.1,0,0,0,.055.083c.028,0,.055,0,.083.055l-.138-.11h0Zm-.468-.44s.3.275.468.44C48.1,69.961,48.185,69.575,47.718,69.713Zm0,0s.3.275.468.44C48.1,69.961,48.185,69.575,47.718,69.713Zm.468.44a.1.1,0,0,0,.055.083c.028,0,.055,0,.083.055l-.138-.11h0Zm0,0a.1.1,0,0,0,.055.083c.028,0,.055,0,.083.055l-.138-.11h0Zm-.468-.44s.3.275.468.44C48.1,69.961,48.185,69.575,47.718,69.713Zm0,0s.3.275.468.44C48.1,69.961,48.185,69.575,47.718,69.713Zm.468.44a.1.1,0,0,0,.055.083c.028,0,.055,0,.083.055l-.138-.11h0Zm0,0a.1.1,0,0,0,.055.083c.028,0,.055,0,.083.055l-.138-.11h0Zm-.468-.44s.3.275.468.44C48.1,69.961,48.185,69.575,47.718,69.713Zm0,0s.3.275.468.44C48.1,69.961,48.185,69.575,47.718,69.713Zm.468.44a.1.1,0,0,0,.055.083c.028,0,.055,0,.083.055l-.138-.11h0Zm0,0a.1.1,0,0,0,.055.083c.028,0,.055,0,.083.055l-.138-.11h0Zm-.468-.44s.3.275.468.44C48.1,69.961,48.185,69.575,47.718,69.713Zm0,0s.3.275.468.44C48.1,69.961,48.185,69.575,47.718,69.713Zm.468.44a.1.1,0,0,0,.055.083c.028,0,.055,0,.083.055l-.138-.11h0Zm0,0a.1.1,0,0,0,.055.083c.028,0,.055,0,.083.055l-.138-.11h0Zm-.468-.44s.3.275.468.44C48.1,69.961,48.185,69.575,47.718,69.713Zm0,0s.3.275.468.44C48.1,69.961,48.185,69.575,47.718,69.713Zm.468.44a.1.1,0,0,0,.055.083c.028,0,.055,0,.083.055l-.138-.11h0Zm0,0a.1.1,0,0,0,.055.083c.028,0,.055,0,.083.055l-.138-.11h0Zm-.468-.44s.3.275.468.44C48.1,69.961,48.185,69.575,47.718,69.713Zm0,0s.3.275.468.44C48.1,69.961,48.185,69.575,47.718,69.713Zm.468.44a.1.1,0,0,0,.055.083c.028,0,.055,0,.083.055l-.138-.11h0Zm0,0a.1.1,0,0,0,.055.083c.028,0,.055,0,.083.055l-.138-.11h0Zm-.468-.44s.3.275.468.44C48.1,69.961,48.185,69.575,47.718,69.713Zm0,0s.3.275.468.44C48.1,69.961,48.185,69.575,47.718,69.713Zm.468.44a.1.1,0,0,0,.055.083c.028,0,.055,0,.083.055l-.138-.11h0Zm0,0a.1.1,0,0,0,.055.083c.028,0,.055,0,.083.055l-.138-.11h0Zm-.468-.44s.3.275.468.44C48.1,69.961,48.185,69.575,47.718,69.713Zm0,0s.3.275.468.44C48.1,69.961,48.185,69.575,47.718,69.713Zm.468.44a.1.1,0,0,0,.055.083c.028,0,.055,0,.083.055l-.138-.11h0Zm0,0a.1.1,0,0,0,.055.083c.028,0,.055,0,.083.055l-.138-.11h0Zm-.468-.44s.3.275.468.44C48.1,69.961,48.185,69.575,47.718,69.713Zm0,0s.3.275.468.44C48.1,69.961,48.185,69.575,47.718,69.713Zm.468.44a.1.1,0,0,0,.055.083c.028,0,.055,0,.083.055l-.138-.11h0Zm0,0a.1.1,0,0,0,.055.083c.028,0,.055,0,.083.055l-.138-.11h0Zm-.468-.44s.3.275.468.44C48.1,69.961,48.185,69.575,47.718,69.713Zm0,0s.3.275.468.44C48.1,69.961,48.185,69.575,47.718,69.713Zm.468.44a.1.1,0,0,0,.055.083c.028,0,.055,0,.083.055l-.138-.11h0Zm0,0a.1.1,0,0,0,.055.083c.028,0,.055,0,.083.055l-.138-.11h0Zm-.468-.44s.3.275.468.44C48.1,69.961,48.185,69.575,47.718,69.713Zm0,0s.3.275.468.44C48.1,69.961,48.185,69.575,47.718,69.713Zm.468.44a.1.1,0,0,0,.055.083c.028,0,.055,0,.083.055l-.138-.11h0Zm0,0a.1.1,0,0,0,.055.083c.028,0,.055,0,.083.055l-.138-.11h0Zm-.468-.44s.3.275.468.44C48.1,69.961,48.185,69.575,47.718,69.713Zm0,0s.3.275.468.44C48.1,69.961,48.185,69.575,47.718,69.713Zm.468.44a.1.1,0,0,0,.055.083c.028,0,.055,0,.083.055l-.138-.11h0Zm0,0a.1.1,0,0,0,.055.083c.028,0,.055,0,.083.055l-.138-.11h0Zm-.468-.44s.3.275.468.44C48.1,69.961,48.185,69.575,47.718,69.713Zm0,0s.3.275.468.44C48.1,69.961,48.185,69.575,47.718,69.713Zm.468.44a.1.1,0,0,0,.055.083c.028,0,.055,0,.083.055l-.138-.11h0Zm0,0a.1.1,0,0,0,.055.083c.028,0,.055,0,.083.055l-.138-.11h0Zm-.468-.44s.3.275.468.44C48.1,69.961,48.185,69.575,47.718,69.713Zm0,0s.3.275.468.44C48.1,69.961,48.185,69.575,47.718,69.713Zm.468.44a.1.1,0,0,0,.055.083c.028,0,.055,0,.083.055l-.138-.11h0Zm0,0a.1.1,0,0,0,.055.083c.028,0,.055,0,.083.055l-.138-.11h0Zm-.468-.44s.3.275.468.44C48.1,69.961,48.185,69.575,47.718,69.713Zm0,0s.3.275.468.44C48.1,69.961,48.185,69.575,47.718,69.713Zm.468.44a.1.1,0,0,0,.055.083c.028,0,.055,0,.083.055l-.138-.11h0Zm0,0a.1.1,0,0,0,.055.083c.028,0,.055,0,.083.055l-.138-.11h0Zm-.468-.44s.3.275.468.44C48.1,69.961,48.185,69.575,47.718,69.713Zm23.518-11.47a2.3,2.3,0,0,0-1.183-.44A2.205,2.205,0,0,0,68.787,58a3.506,3.506,0,0,0-1.128.633,25.653,25.653,0,0,1-4.786,4.511c-.66.385-.77,1.788-2.063,1.128-.11-.055-.523.275-.66.5-1.045,1.623-2.118,3.218-3.053,4.9a28.825,28.825,0,0,0-2.173,6.519c-.605,2.2-2.228,2.723-4.126,3.356a5.333,5.333,0,0,1,.825-2.228,24.954,24.954,0,0,0,2.833-7.317,7.316,7.316,0,0,0-.825-5.254c-.688-1.155-2.531-1.925-3.108-1.293A17.6,17.6,0,0,0,48.6,65.56c-2.2,3.576-4.318,7.234-6.766,10.645a15.261,15.261,0,0,0-3.191,10.837c.22,1.98,0,4.016.055,6.024,0,.633-.083,1.045-.853,1.21-1.1.248-1.815.963-1.238,2.173.248.523-.083.605-.358.88a2.707,2.707,0,0,0-.11,3.851,2.573,2.573,0,0,0,1.018.688c.413.193.605.385.358.715-.8,1.1-.33,2.393-.605,3.548-.138.578,0,1.1.66,1.21s.715-.5.935-.908a1.52,1.52,0,0,0,.083-1.1c-.248-1.623.853-2.641,2.393-2.173a11,11,0,0,0,7.839-.083c.715-.33,1.045-.083,1.128.715a22.635,22.635,0,0,0,.523,2.366c.11.44.33.908.853.8.605-.138.413-.633.275-1.045,0-.083-.083-.165-.11-.275-.385-1.87-1.073-3.741,1.43-4.9,1.43-.66-.193-1.485-.33-2.2s-.743-.22-1.155-.083A20,20,0,0,1,45.38,100a25.009,25.009,0,0,1-7.757-1.733.25.25,0,0,1-.193-.083c-.055-.055-.11-.083-.138-.165a.7.7,0,0,1-.055-.193V97.6c.138-.633.523-.165.77-.083.8.3,1.678.44,2.476.66a24.116,24.116,0,0,0,5.969.33,14.928,14.928,0,0,0,6.161-1.485c.468-.193.605-.66.138-.825-2.035-.66-.66-1.623-.165-2.31a34.539,34.539,0,0,1,6.244-6.106,18.963,18.963,0,0,0,6.381-9.325c1.9-6.106,3.906-12.185,5.831-18.291.193-.633.825-1.375.055-1.953h.138ZM50.909,100.272a9.488,9.488,0,0,1-12.6-.193A17.46,17.46,0,0,0,50.909,100.272ZM62.241,66.55s.358.083.33.11a2.507,2.507,0,0,1-.935,1.925c-.083-.083-.138-.11-.138-.138a2.25,2.25,0,0,1,.715-1.9h.028Zm-1.4-.688a47.232,47.232,0,0,1-3.411,9.572c.99-3.246,1.045-6.821,3.411-9.572ZM38.723,96.229a2.732,2.732,0,0,1,3.191.825A6.886,6.886,0,0,1,38.723,96.229ZM69.668,60.2c-2.035,1.4-1.65,3.356-1.76,5.474a27.319,27.319,0,0,1-1.815,6.6A51.957,51.957,0,0,1,62.736,81.4a19.1,19.1,0,0,1-5.721,6.326,18.276,18.276,0,0,0-5.254,5.611,5.864,5.864,0,0,1-5.529,2.833,18.655,18.655,0,0,1-5.859-1.293.712.712,0,0,1-.578-.825h0a75.6,75.6,0,0,0,.413-10.59A8.538,8.538,0,0,1,41.722,78.9c2.035-3.053,4.043-6.134,6.051-9.187a15.16,15.16,0,0,1,2.421-3.328c.358,1.568.138,2.613-1.375,3.053-.468.138-.633.358-.44.825a2.857,2.857,0,0,0,3.108-2.641,2.977,2.977,0,0,0-.248-1.458c-.138-.468-.743-.99,0-1.32.633-.275,1.155.248,1.4.715a7.347,7.347,0,0,1,.385,5.556,46.824,46.824,0,0,1-3.658,8.224c-.248.523-.8,1.1-.165,1.705a1.444,1.444,0,0,0,1.733,0,40.9,40.9,0,0,0,5.474-2.778,24.484,24.484,0,0,0,6.574-9.077,40.228,40.228,0,0,1,3.961-7.922,8.4,8.4,0,0,1,1.98-1.843c.275-.165.66-.3.908.055a.611.611,0,0,1,.083.44.62.62,0,0,1-.22.385v-.083h-.028ZM48.323,70.263l-.138-.11a.1.1,0,0,0,.055.083c.028,0,.055,0,.083.055h0Zm-.578-.55c.165.138.3.275.468.44C48.1,69.961,48.158,69.575,47.745,69.713Zm0,0c.165.138.3.275.468.44C48.1,69.961,48.158,69.575,47.745,69.713Zm.468.44a.1.1,0,0,0,.055.083c.028,0,.055,0,.083.055l-.138-.11h0Zm0,0a.1.1,0,0,0,.055.083c.028,0,.055,0,.083.055l-.138-.11h0Zm-.468-.44c.165.138.3.275.468.44C48.1,69.961,48.158,69.575,47.745,69.713Zm0,0c.165.138.3.275.468.44C48.1,69.961,48.158,69.575,47.745,69.713Zm.468.44a.1.1,0,0,0,.055.083c.028,0,.055,0,.083.055l-.138-.11h0Zm0,0a.1.1,0,0,0,.055.083c.028,0,.055,0,.083.055l-.138-.11h0Zm-.468-.44c.165.138.3.275.468.44C48.1,69.961,48.158,69.575,47.745,69.713Zm0,0c.165.138.3.275.468.44C48.1,69.961,48.158,69.575,47.745,69.713Zm.468.44a.1.1,0,0,0,.055.083c.028,0,.055,0,.083.055l-.138-.11h0Zm0,0a.1.1,0,0,0,.055.083c.028,0,.055,0,.083.055l-.138-.11h0Zm-.468-.44c.165.138.3.275.468.44C48.1,69.961,48.158,69.575,47.745,69.713Zm0,0c.165.138.3.275.468.44C48.1,69.961,48.158,69.575,47.745,69.713Zm.468.44a.1.1,0,0,0,.055.083c.028,0,.055,0,.083.055l-.138-.11h0Zm0,0a.1.1,0,0,0,.055.083c.028,0,.055,0,.083.055l-.138-.11h0Zm-.468-.44c.165.138.3.275.468.44C48.1,69.961,48.158,69.575,47.745,69.713Zm0,0c.165.138.3.275.468.44C48.1,69.961,48.158,69.575,47.745,69.713Zm.468.44a.1.1,0,0,0,.055.083c.028,0,.055,0,.083.055l-.138-.11h0Zm0,0a.1.1,0,0,0,.055.083c.028,0,.055,0,.083.055l-.138-.11h0Zm-.468-.44c.165.138.3.275.468.44C48.1,69.961,48.158,69.575,47.745,69.713Zm0,0c.165.138.3.275.468.44C48.1,69.961,48.158,69.575,47.745,69.713Zm.468.44a.1.1,0,0,0,.055.083c.028,0,.055,0,.083.055l-.138-.11h0Zm0,0a.1.1,0,0,0,.055.083c.028,0,.055,0,.083.055l-.138-.11h0Zm-.468-.44c.165.138.3.275.468.44C48.1,69.961,48.158,69.575,47.745,69.713Zm0,0c.165.138.3.275.468.44C48.1,69.961,48.158,69.575,47.745,69.713Zm.468.44a.1.1,0,0,0,.055.083c.028,0,.055,0,.083.055l-.138-.11h0Zm0,0a.1.1,0,0,0,.055.083c.028,0,.055,0,.083.055l-.138-.11h0Zm-.468-.44c.165.138.3.275.468.44C48.1,69.961,48.158,69.575,47.745,69.713Zm0,0c.165.138.3.275.468.44C48.1,69.961,48.158,69.575,47.745,69.713Zm.468.44a.1.1,0,0,0,.055.083c.028,0,.055,0,.083.055l-.138-.11h0Zm0,0a.1.1,0,0,0,.055.083c.028,0,.055,0,.083.055l-.138-.11h0Zm-.468-.44c.165.138.3.275.468.44C48.1,69.961,48.158,69.575,47.745,69.713Zm0,0c.165.138.3.275.468.44C48.1,69.961,48.158,69.575,47.745,69.713Zm.468.44a.1.1,0,0,0,.055.083c.028,0,.055,0,.083.055l-.138-.11h0Zm0,0a.1.1,0,0,0,.055.083c.028,0,.055,0,.083.055l-.138-.11h0Zm-.468-.44c.165.138.3.275.468.44C48.1,69.961,48.158,69.575,47.745,69.713Zm0,0c.165.138.3.275.468.44C48.1,69.961,48.158,69.575,47.745,69.713Zm.468.44a.1.1,0,0,0,.055.083c.028,0,.055,0,.083.055l-.138-.11h0Zm0,0a.1.1,0,0,0,.055.083c.028,0,.055,0,.083.055l-.138-.11h0Zm-.468-.44c.165.138.3.275.468.44C48.1,69.961,48.158,69.575,47.745,69.713Zm0,0c.165.138.3.275.468.44C48.1,69.961,48.158,69.575,47.745,69.713Zm.468.44a.1.1,0,0,0,.055.083c.028,0,.055,0,.083.055l-.138-.11h0Zm0,0a.1.1,0,0,0,.055.083c.028,0,.055,0,.083.055l-.138-.11h0Zm-.468-.44c.165.138.3.275.468.44C48.1,69.961,48.158,69.575,47.745,69.713Zm0,0c.165.138.3.275.468.44C48.1,69.961,48.158,69.575,47.745,69.713Zm.468.44a.1.1,0,0,0,.055.083c.028,0,.055,0,.083.055l-.138-.11h0Zm0,0a.1.1,0,0,0,.055.083c.028,0,.055,0,.083.055l-.138-.11h0Zm-.468-.44c.165.138.3.275.468.44C48.1,69.961,48.158,69.575,47.745,69.713Zm0,0c.165.138.3.275.468.44C48.1,69.961,48.158,69.575,47.745,69.713Zm.468.44a.1.1,0,0,0,.055.083c.028,0,.055,0,.083.055l-.138-.11h0Zm0,0a.1.1,0,0,0,.055.083c.028,0,.055,0,.083.055l-.138-.11h0Zm-.468-.44c.165.138.3.275.468.44C48.1,69.961,48.158,69.575,47.745,69.713Zm0,0c.165.138.3.275.468.44C48.1,69.961,48.158,69.575,47.745,69.713Zm.468.44a.1.1,0,0,0,.055.083c.028,0,.055,0,.083.055l-.138-.11h0Zm0,0a.1.1,0,0,0,.055.083c.028,0,.055,0,.083.055l-.138-.11h0Zm-.468-.44c.165.138.3.275.468.44C48.1,69.961,48.158,69.575,47.745,69.713Zm0,0c.165.138.3.275.468.44C48.1,69.961,48.158,69.575,47.745,69.713Zm.468.44a.1.1,0,0,0,.055.083c.028,0,.055,0,.083.055l-.138-.11h0Zm0,0a.1.1,0,0,0,.055.083c.028,0,.055,0,.083.055l-.138-.11h0Zm-.468-.44c.165.138.3.275.468.44C48.1,69.961,48.158,69.575,47.745,69.713Zm0,0c.165.138.3.275.468.44C48.1,69.961,48.158,69.575,47.745,69.713Zm.468.44a.1.1,0,0,0,.055.083c.028,0,.055,0,.083.055l-.138-.11h0Zm0,0a.1.1,0,0,0,.055.083c.028,0,.055,0,.083.055l-.138-.11h0Zm-.468-.44c.165.138.3.275.468.44C48.1,69.961,48.158,69.575,47.745,69.713Zm0,0c.165.138.3.275.468.44C48.1,69.961,48.158,69.575,47.745,69.713Zm.468.44a.1.1,0,0,0,.055.083c.028,0,.055,0,.083.055l-.138-.11h0Zm0,0a.1.1,0,0,0,.055.083c.028,0,.055,0,.083.055l-.138-.11h0Zm-.468-.44c.165.138.3.275.468.44C48.1,69.961,48.158,69.575,47.745,69.713Zm0,0c.165.138.3.275.468.44C48.1,69.961,48.158,69.575,47.745,69.713Zm.468.44a.1.1,0,0,0,.055.083c.028,0,.055,0,.083.055l-.138-.11h0Zm0,0a.1.1,0,0,0,.055.083c.028,0,.055,0,.083.055l-.138-.11h0Zm-.468-.44c.165.138.3.275.468.44C48.1,69.961,48.158,69.575,47.745,69.713Zm0,0c.165.138.3.275.468.44C48.1,69.961,48.158,69.575,47.745,69.713Zm.468.44a.1.1,0,0,0,.055.083c.028,0,.055,0,.083.055l-.138-.11h0Zm0,0a.1.1,0,0,0,.055.083c.028,0,.055,0,.083.055l-.138-.11h0Zm-.468-.44c.165.138.3.275.468.44C48.1,69.961,48.158,69.575,47.745,69.713Zm0,0c.165.138.3.275.468.44C48.1,69.961,48.158,69.575,47.745,69.713Zm.468.44a.1.1,0,0,0,.055.083c.028,0,.055,0,.083.055l-.138-.11h0Zm0,0a.1.1,0,0,0,.055.083c.028,0,.055,0,.083.055l-.138-.11h0Zm-.468-.44c.165.138.3.275.468.44C48.1,69.961,48.158,69.575,47.745,69.713Zm0,0c.165.138.3.275.468.44C48.1,69.961,48.158,69.575,47.745,69.713Zm.468.44a.1.1,0,0,0,.055.083c.028,0,.055,0,.083.055l-.138-.11h0Zm0,0a.1.1,0,0,0,.055.083c.028,0,.055,0,.083.055l-.138-.11h0Zm-.468-.44c.165.138.3.275.468.44C48.1,69.961,48.158,69.575,47.745,69.713Zm0,0c.165.138.3.275.468.44C48.1,69.961,48.158,69.575,47.745,69.713Zm.468.44a.1.1,0,0,0,.055.083c.028,0,.055,0,.083.055l-.138-.11h0Zm0,0a.1.1,0,0,0,.055.083c.028,0,.055,0,.083.055l-.138-.11h0Zm-.468-.44c.165.138.3.275.468.44C48.1,69.961,48.158,69.575,47.745,69.713Zm0,0c.165.138.3.275.468.44C48.1,69.961,48.158,69.575,47.745,69.713Zm.468.44a.1.1,0,0,0,.055.083c.028,0,.055,0,.083.055l-.138-.11h0Zm0,0a.1.1,0,0,0,.055.083c.028,0,.055,0,.083.055l-.138-.11h0Zm-.468-.44c.165.138.3.275.468.44C48.1,69.961,48.158,69.575,47.745,69.713Zm0,0c.165.138.3.275.468.44C48.1,69.961,48.158,69.575,47.745,69.713Zm.468.44a.1.1,0,0,0,.055.083c.028,0,.055,0,.083.055l-.138-.11h0Zm0,0a.1.1,0,0,0,.055.083c.028,0,.055,0,.083.055l-.138-.11h0Zm-.468-.44c.165.138.3.275.468.44C48.1,69.961,48.158,69.575,47.745,69.713Zm0,0c.165.138.3.275.468.44C48.1,69.961,48.158,69.575,47.745,69.713Zm.468.44a.1.1,0,0,0,.055.083c.028,0,.055,0,.083.055l-.138-.11h0Zm0,0a.1.1,0,0,0,.055.083c.028,0,.055,0,.083.055l-.138-.11h0Zm-.468-.44c.165.138.3.275.468.44C48.1,69.961,48.158,69.575,47.745,69.713Zm0,0c.165.138.3.275.468.44C48.1,69.961,48.158,69.575,47.745,69.713Zm.468.44a.1.1,0,0,0,.055.083c.028,0,.055,0,.083.055l-.138-.11h0Zm0,0a.1.1,0,0,0,.055.083c.028,0,.055,0,.083.055l-.138-.11h0Zm-.468-.44c.165.138.3.275.468.44C48.1,69.961,48.158,69.575,47.745,69.713Zm0,0c.165.138.3.275.468.44C48.1,69.961,48.158,69.575,47.745,69.713Zm.468.44a.1.1,0,0,0,.055.083c.028,0,.055,0,.083.055l-.138-.11h0Zm0,0a.1.1,0,0,0,.055.083c.028,0,.055,0,.083.055l-.138-.11h0Zm-.468-.44c.165.138.3.275.468.44C48.1,69.961,48.158,69.575,47.745,69.713Zm0,0c.165.138.3.275.468.44C48.1,69.961,48.158,69.575,47.745,69.713Zm.468.44a.1.1,0,0,0,.055.083c.028,0,.055,0,.083.055l-.138-.11h0Zm0,0a.1.1,0,0,0,.055.083c.028,0,.055,0,.083.055l-.138-.11h0Zm-.468-.44c.165.138.3.275.468.44C48.1,69.961,48.158,69.575,47.745,69.713Zm0,0c.165.138.3.275.468.44C48.1,69.961,48.158,69.575,47.745,69.713Zm.468.44a.1.1,0,0,0,.055.083c.028,0,.055,0,.083.055l-.138-.11h0Zm0,0a.1.1,0,0,0,.055.083c.028,0,.055,0,.083.055l-.138-.11h0Zm-.468-.44c.165.138.3.275.468.44C48.1,69.961,48.158,69.575,47.745,69.713Zm0,0c.165.138.3.275.468.44C48.1,69.961,48.158,69.575,47.745,69.713Zm.468.44a.1.1,0,0,0,.055.083c.028,0,.055,0,.083.055l-.138-.11h0Zm0,0a.1.1,0,0,0,.055.083c.028,0,.055,0,.083.055l-.138-.11h0Zm-.468-.44c.165.138.3.275.468.44C48.1,69.961,48.158,69.575,47.745,69.713Zm0,0c.165.138.3.275.468.44C48.1,69.961,48.158,69.575,47.745,69.713Zm.468.44a.1.1,0,0,0,.055.083c.028,0,.055,0,.083.055l-.138-.11h0Zm0,0a.1.1,0,0,0,.055.083c.028,0,.055,0,.083.055l-.138-.11h0Zm-.468-.44c.165.138.3.275.468.44C48.1,69.961,48.158,69.575,47.745,69.713Zm0,0c.165.138.3.275.468.44C48.1,69.961,48.158,69.575,47.745,69.713Zm.468.44a.1.1,0,0,0,.055.083c.028,0,.055,0,.083.055l-.138-.11h0Zm0,0a.1.1,0,0,0,.055.083c.028,0,.055,0,.083.055l-.138-.11h0Zm-.468-.44c.165.138.3.275.468.44C48.1,69.961,48.158,69.575,47.745,69.713Zm0,0c.165.138.3.275.468.44C48.1,69.961,48.158,69.575,47.745,69.713Zm.468.44a.1.1,0,0,0,.055.083c.028,0,.055,0,.083.055l-.138-.11h0Zm0,0a.1.1,0,0,0,.055.083c.028,0,.055,0,.083.055l-.138-.11h0Zm-.468-.44c.165.138.3.275.468.44C48.1,69.961,48.158,69.575,47.745,69.713Zm0,0c.165.138.3.275.468.44C48.1,69.961,48.158,69.575,47.745,69.713Zm.468.44a.1.1,0,0,0,.055.083c.028,0,.055,0,.083.055l-.138-.11h0Zm0,0a.1.1,0,0,0,.055.083c.028,0,.055,0,.083.055l-.138-.11h0Zm-.468-.44c.165.138.3.275.468.44C48.1,69.961,48.158,69.575,47.745,69.713Zm0,0c.165.138.3.275.468.44C48.1,69.961,48.158,69.575,47.745,69.713Zm.468.44a.1.1,0,0,0,.055.083c.028,0,.055,0,.083.055l-.138-.11h0Zm0,0a.1.1,0,0,0,.055.083c.028,0,.055,0,.083.055l-.138-.11h0Zm-.468-.44c.165.138.3.275.468.44C48.1,69.961,48.158,69.575,47.745,69.713Zm0,0c.165.138.3.275.468.44C48.1,69.961,48.158,69.575,47.745,69.713Zm.468.44a.1.1,0,0,0,.055.083c.028,0,.055,0,.083.055l-.138-.11h0Zm0,0a.1.1,0,0,0,.055.083c.028,0,.055,0,.083.055l-.138-.11h0Zm-.468-.44c.165.138.3.275.468.44C48.1,69.961,48.158,69.575,47.745,69.713Zm0,0c.165.138.3.275.468.44C48.1,69.961,48.158,69.575,47.745,69.713Zm.468.44a.1.1,0,0,0,.055.083c.028,0,.055,0,.083.055l-.138-.11h0Zm0,0a.1.1,0,0,0,.055.083c.028,0,.055,0,.083.055l-.138-.11h0Zm-.468-.44c.165.138.3.275.468.44C48.1,69.961,48.158,69.575,47.745,69.713Zm0,0c.165.138.3.275.468.44C48.1,69.961,48.158,69.575,47.745,69.713Zm.468.44a.1.1,0,0,0,.055.083c.028,0,.055,0,.083.055l-.138-.11h0Zm0,0a.1.1,0,0,0,.055.083c.028,0,.055,0,.083.055l-.138-.11h0Zm-.468-.44c.165.138.3.275.468.44C48.1,69.961,48.158,69.575,47.745,69.713Z" transform="translate(61.952 101.154)" fill="#db4437"/>
        <path id="Path_104" data-name="Path 104" d="M21,60.248A2.26,2.26,0,0,1,18.686,62.5h-.055a2.865,2.865,0,0,1-2.311-2.586,2.434,2.434,0,0,1,2.145-2.228,2.84,2.84,0,0,1,2.5,2.558Z" transform="translate(28.574 100.992)" fill="#db4437"/>
        <path id="Path_105" data-name="Path 105" d="M24.29,26.371c-.358-.715-.963-.633-1.623-.3-1.1.523-2.283.935-3.411,1.375-.248.083-.523.248-.77,0s-.055-.5.028-.743c.275-.715.55-1.4.853-2.09a61.908,61.908,0,0,1,3.576-6.987c.3-.523.44-1.045-.193-1.375-.66-.385-1.128,0-1.43.578a13.663,13.663,0,0,0-.688,1.43,1.043,1.043,0,0,1-1.238.825.782.782,0,0,1-.33-.11c-1.458-.5-2.971-.908-4.483-1.265-2.641-.578-4.373.66-4.373,3.273,0,1.32-.44,1.43-1.485.99-.935-.385-2.09-.77-2.421.44-.33,1.155.963,1.375,1.815,1.513a45.191,45.191,0,0,1,7.784,2.09c.8.248.88.66.578,1.293-.248.55-.22,1.4-1.32.935-2.5-1.018-5.144-1.6-7.7-2.421-.8-.248-1.705-.715-2.035.413-.385,1.21.8,1.128,1.513,1.375a19.736,19.736,0,0,0,2.283.523,41.9,41.9,0,0,1,5.446,1.76c.715.248.605.55.55,1.183-.193,1.733-1.705,2.531-2.751,3.548-.8.77-1.9.413-2.668-.413s-.3-1.4.5-1.925a.846.846,0,0,0,.44-1.128,1.008,1.008,0,0,0-1.238-.605,16.611,16.611,0,0,1-2.338.083A5.247,5.247,0,0,0,2.533,32.78a.873.873,0,0,0,.055,1.238s.055.055.083.055a.656.656,0,0,0,.3.165,1.38,1.38,0,0,0,.33.055.5.5,0,0,0,.33-.083.988.988,0,0,0,.275-.193l.99-.908A3.184,3.184,0,0,1,6,32.56a2.362,2.362,0,0,1,1.238,0c.743.138.138.935.385,1.375a3.276,3.276,0,0,1,.275.88c-2.366,0-3.411.633-3.493,2.228-.055,1.128-.55,1.238-1.458.908-.853-.3-1.788-.358-2.035.66-.248,1.073.8,1.128,1.54,1.238a83.98,83.98,0,0,1,8.912,2.145c.33.083,1.045,0,.825.605-.248.715.248,1.843-.743,2.063-.853.165-.853.523-1.018,1.1A1.836,1.836,0,0,1,8.5,47.33a2.8,2.8,0,0,1-2.668-1.568c-.385-1.045.908-1.018,1.43-1.458l.33-.248c.605-.66.358-1.128-.385-1.43a9.152,9.152,0,0,0-6.574,1.6c-.825.908-.853,1.815-.055,2.283,1.1.66,1.265-.193,1.6-.908a1.14,1.14,0,0,1,.5-.523,1.333,1.333,0,0,1,.715-.193c.77,0,.385.66.523,1.018a3.174,3.174,0,0,0,.743,1.238,4.662,4.662,0,0,0,5.914,1.183c.33-.193.688-.3.77.275.33,1.98-.44,2.778-2.5,2.448-2.311-.358-4.649-.358-6.987-.633-.8-.083-1.623,0-1.678.908s.8.908,1.513.908c2.806.028,5.584.385,8.362.66.413.028.825-.028.853.578a.723.723,0,0,0,.633.825h.22c.605-.055.77-.578.853-1.045.083-.605.11-1.238.138-1.843a75.914,75.914,0,0,1,4.291-20.685c.138-.358.11-.908.743-.99A50.868,50.868,0,0,0,23.438,27.8c.605-.193,1.238-.633.853-1.43h0ZM8.007,39.051a3.079,3.079,0,0,1-1.155-.688,3.126,3.126,0,0,1-.66-1.128c-.138-.44.248-.743.715-.77a2.073,2.073,0,0,1,1.65,1.843c-.083.3.055.935-.605.743Zm4.759.688c-.11.66-.743.385-1.128.22-.55-.22-1.513.138-1.458-.935a7.233,7.233,0,0,0-.248-2.668,6.257,6.257,0,0,0,3.548-.3,21.35,21.35,0,0,1-.743,3.686h0Zm5.144-15.651c-.248.633-.715.578-1.238.413-.935-.33-1.9-.66-2.833-.935a2.37,2.37,0,0,1-1.678-2.338c-.138-1.293.5-1.843,2.145-1.705,1.183.3,2.668.633,4.126,1.018a.737.737,0,0,1,.66.8.782.782,0,0,1-.11.33c-.33.8-.715,1.6-1.045,2.421h0Z" transform="translate(0.001 28.174)" fill="#db4437"/>
        <path id="Path_106" data-name="Path 106" d="M15.121,34.428c-2.145-.138-3-.715-2.668-2.751a.936.936,0,0,0-.028-.275.6.6,0,0,0-.138-.22.721.721,0,0,0-.248-.138.977.977,0,0,0-.275-.055,1.083,1.083,0,0,0-.578.165.73.73,0,0,0-.3.5,1.8,1.8,0,0,0,0,.935c.165,1.1-.385,1.43-1.43,1.54-2.476.248-4.924.358-7.4.44-.77,0-1.65,0-1.65.908,0,1.073.99.935,1.76.908.248,0,.468-.055.688-.055,2.366-.193,4.759-.33,7.124-.55.688-.055,1.018.083,1.045.8.083,1.458.193,2.888.3,4.181.248,1.513-.88,1.073-1.513,1.21-.853.165-1.018-.3-.908-1.018a3.351,3.351,0,0,0-1.183-2.723,3.518,3.518,0,0,0-4.291-.33A2.236,2.236,0,0,0,2.3,40.865c.083.165.165.3.248.44.825,1.43-.11,1.375-1.1,1.458C.68,42.845-.118,43.093.02,44s.963.743,1.678.633a42.345,42.345,0,0,1,7.894-.908c1.32,0,2.311-.055,2.338,1.6a.8.8,0,0,0,.853.8.537.537,0,0,0,.22-.027c.605-.083.66-.55.605-1.018a5.03,5.03,0,0,0-.055-.908c-.385-1.045.138-1.238,1.1-1.375A4.457,4.457,0,0,0,18.889,38.5a4.316,4.316,0,0,0-3.713-4.043h-.055ZM6.346,41.965c-1.513-.11-2.5-.935-2.421-2.035.055-.908.743-1.018,1.458-.963a2.067,2.067,0,0,1,1.76,2.311C7.089,41.827,6.924,42.13,6.346,41.965Zm10.59-3.3a3.019,3.019,0,0,1-3.383,2.531c-.413-.083-.468-.358-.523-.66-.11-1.21-.3-2.421-.33-3.658-.028-1.32,1.045-1.045,1.65-1.073a2.9,2.9,0,0,1,2.613,2.888h0Z" transform="translate(0.011 54.251)" fill="#db4437"/>
        <path id="Path_107" data-name="Path 107" d="M11.642,38.156a3.3,3.3,0,0,0-4.594-.77,3.135,3.135,0,0,0-1.073,1.32c-.413.715-.77.413-1.128,0s-.11-.8.138-1.21a.867.867,0,0,0,.138-.633.831.831,0,0,0-.385-.523.656.656,0,0,0-.3-.165c-.11,0-.22-.055-.33,0a.732.732,0,0,0-.33.083,1.077,1.077,0,0,0-.275.22A19.823,19.823,0,0,0,.64,39.861a1.383,1.383,0,0,0-.22.743,1.235,1.235,0,0,0,.275.743.985.985,0,0,0,.523.413,1.355,1.355,0,0,0,.66.055c.633-.165.578-.688.66-1.155.165-.853.523-1.21,1.348-.44a5.971,5.971,0,0,0,3.686,1.87,4.313,4.313,0,0,0,3.6-1.32c.66-.77,1.265-1.65.468-2.613h0Zm-1.65,1.265c-.138.853-1.045,1.073-1.9,1.1-.55,0-.853-.165-.77-.77.083-.77.33-1.4,1.293-1.32.66.055,1.485.33,1.375.99h0Z" transform="translate(0.739 63.286)" fill="#db4437"/>
        <path id="Path_108" data-name="Path 108" d="M41.938,86.141a99.181,99.181,0,0,1-13.12-13.2A89.531,89.531,0,0,1,18.476,56.407c-.385-.715-.605-1.1.605-1.375a4.279,4.279,0,0,0,3.576-3.3A4.677,4.677,0,0,0,20.1,46.945a3.591,3.591,0,0,0-4.373,0c-.8.55-1.045.193-1.32-.55a60.768,60.768,0,0,1-2.09-7.674c-.165-.633-.413-1.293-1.265-1.073-.743.193-.633.908-.5,1.458.3,1.238.688,2.476.963,3.713.083.413.715,1.073-.3,1.238-.77.11-1.678.853-2.145-.5a4.625,4.625,0,0,0-4.291-2.806,2.216,2.216,0,0,0-2.448,1.1,2.232,2.232,0,0,0,.138,2.723c.578.66.715,1.045-.3,1.375-.55.193-1.045.688-.688,1.375.33.605.908.468,1.458.3,2.888-.853,5.941-.99,8.857-1.815,1.128-.33.715.935,1.073,1.458s.083.77-.523.908c-2.531.578-5.061,1.183-7.592,1.788-.715.165-1.623.3-1.4,1.238s1.073.715,1.815.523c2.228-.633,4.566-.99,6.794-1.678,1.705-.523,1.843-.358,2.476,1.293.385,1.045.825,2.063,1.265,3.081.138.3.578.578-.055.8-.8.3-1.43.99-2.366.88-.028,0-.028-.193-.055-.3a3.279,3.279,0,0,0-3.108-3.411H9.866a3.352,3.352,0,0,0-3.521,1.54,2.53,2.53,0,0,0,.605,3.163c.77.715.825,1.128.055,1.76a1.779,1.779,0,0,0-.22.248.732.732,0,0,0-.083.33.7.7,0,0,0,.055.33.988.988,0,0,0,.193.275,1.058,1.058,0,0,0,.248.248.529.529,0,0,0,.33.11h.358s.22-.083.33-.138c2.255-1.623,5.281-1.485,7.592-3.026.853-.55,1.513-.468,1.815.633.165.578.523,1.128.743,1.705.165.413.908.825.138,1.348a1.246,1.246,0,0,1-1.733-.027s-.055-.055-.055-.083a2.419,2.419,0,0,0-3.411-.44,1.779,1.779,0,0,0-.248.22,3.637,3.637,0,0,1-1.9,1.128,1.775,1.775,0,0,0-1.513,2.008,1.437,1.437,0,0,0,.193.578,5.559,5.559,0,0,0,3.218,3.273c.853.385.935.688.138,1.21-.523.358-.88.908-.44,1.485.523.66,1.1.3,1.678-.055a58.337,58.337,0,0,1,6.739-3.548c.825-.33,1.155-.275,1.6.44.5.8.055,1.128-.55,1.458L15.7,71.947c-.578.3-1.238.633-.77,1.4s1.018.468,1.65.11c2.338-1.293,4.731-2.531,7.069-3.823.523-.275.908-.413,1.265.138,1.375,2.255,3.108,4.263,4.649,6.409.77,1.1-.605,1.21-1.018,1.76s-.8.138-1.128-.3c-.688-.88-2.09-1.348-1.6-2.833.028-.083-.11-.248-.193-.33a4.146,4.146,0,0,0-1.348-1.045,4.464,4.464,0,0,0-1.678-.44,4.648,4.648,0,0,0-1.733.248,4.523,4.523,0,0,0-1.485.88,3.319,3.319,0,0,0-.5,4.456c.3.358.66.715,1.155.5.605-.248.358-.743.165-1.128a2.317,2.317,0,0,1-.11-1.815,2.422,2.422,0,0,1,2.2-1.54,1.488,1.488,0,0,1,1.705.88c.275.853-.55,1.183-1.128,1.623-.44.3-.77.715-.385,1.238s.88.385,1.348.11c.66-.33,1.375-.605,1.815.165a1.291,1.291,0,0,1-.44,1.76c-.055,0-.083.055-.138.055-.853.578-1.705,1.183-2.531,1.843-.385.33-.688.77-.248,1.265a.956.956,0,0,0,1.32.193h0c.22-.138.44-.3.66-.468,2.063-1.54,4.126-3.081,6.189-4.593.248-.193.468-.688.88-.358a10.025,10.025,0,0,1,1.568,1.485c.44.5-.193.77-.385,1.128a1.027,1.027,0,0,0-.083.578.885.885,0,0,0,.33.5.761.761,0,0,1,.3.358.816.816,0,0,1,.055.44,1.09,1.09,0,0,1-.33.633,1.5,1.5,0,0,1-.66.33c-.605.138-.8-.248-.963-.688-.248-.715-.66-1.348-1.513-1.32s-1.1.825-1.375,1.485a3.865,3.865,0,0,0,1.623,5.226,3.744,3.744,0,0,0,1.705.44c1.32.193,1.238.523.523,1.293-.138.165-.275.33-.44.5-.578.578-1.073,1.293-.248,1.925.908.688,1.4-.165,1.815-.77a25.981,25.981,0,0,1,3.8-4.511,2.45,2.45,0,0,1,3.466-.3,1.576,1.576,0,0,1,.3.3c.523.468,1.045,1.1,1.705.358.578-.66-.11-1.045-.605-1.458h0v-.055h0ZM7.088,44.992a2.746,2.746,0,0,1-3-1.018,1.02,1.02,0,0,1-.248-1.1c.248-.468.688-.275.908-.3A3.252,3.252,0,0,1,7.5,43.836c.44.578.33.963-.413,1.155ZM8.161,55.967c-.688-1.018-.33-1.843.935-1.953a2.455,2.455,0,0,1,2.668,1.238,8.6,8.6,0,0,0,.8,1.155c-2.366,1.128-3.383,1.045-4.4-.468h0Zm9.572-2.283c-.523.055-.605-.193-.77-.55-.385-.908-.8-1.76-1.128-2.7a1.813,1.813,0,0,1,.908-2.393,1.765,1.765,0,0,1,1.128-.11,3.366,3.366,0,0,1,2.888,3.081,3.082,3.082,0,0,1-3.053,2.641h.028ZM20.7,64.823a9.962,9.962,0,0,1-6.024,1.733,4.336,4.336,0,0,1-1.705-.853,4.662,4.662,0,0,1-1.21-1.43c-.138-.275-.248-.633.083-.825s.605,0,.853.248.523.633.77.935a.892.892,0,0,0,1.265.22.085.085,0,0,0,.055-.027.786.786,0,0,0,.248-1.073c0-.055-.055-.083-.083-.11-.165-.275-.33-.523-.5-.8-.193-.358-.44-.8.055-1.045s.88.083,1.128.5c.11.193.138.44.248.605.33.77.88.8,1.513.358.138-.11.248-.248.413-.358a1.818,1.818,0,0,1,2.558.055,1.788,1.788,0,0,1,.5,1.265c.028.22.055.413-.193.55h0v.055h0Zm16.5,19.694c-1.32,1.238-2.338,2.861-4.538,2.806-1.43-.055-2.751-.825-2.833-1.815,0-.358-.165-.853.605-.55a3.056,3.056,0,0,0,4.126-1.21,2.808,2.808,0,0,0,.3-.8c.083-.22.028-.523.413-.688.578.523,1.155,1.045,1.733,1.6.193.193.413.468.165.66h0Z" transform="translate(2.378 65.83)" fill="#db4437"/>
        <path id="Path_109" data-name="Path 109" d="M33.864,52.761c1.045,3.6,3.933,6.326,4.649,10.095a.82.82,0,0,0,.33.468.791.791,0,0,0,.55.138,1.147,1.147,0,0,0,.66-.248,1.247,1.247,0,0,0,.413-.578c.66-1.513,1.43-3,2.008-4.538,1.1-2.806,2.971-5.419,2.7-8.692a36.1,36.1,0,0,0-2.558-10.2,30.611,30.611,0,0,1-2.476-6.519c-.083-.5-.083-1.265-.688-1.21a1.387,1.387,0,0,0-1.293,1.265c-.358,1.6-.193,3.246-.66,4.814-.138.523-.248,1.43-1.183.688s-1.32-.33-1.815.605a18.423,18.423,0,0,0-.66,13.946h.028Z" transform="translate(57.377 55.09)" fill="#db4437"/>
        <path id="Path_110" data-name="Path 110" d="M49.239,41.712s-.193.275-.275.413v.5c.248.578.77.66,1.293.715a21.6,21.6,0,0,1,6.189,1.155c.385.138.715.33.715.77a.726.726,0,0,1-.193.523.927.927,0,0,1-.468.3c-.413.138-.825.248-1.238.385a30.853,30.853,0,0,1-9.407.633,37.562,37.562,0,0,1-11.195-1.54c-.468-.165-1.21-.193-1.155-.853.055-.605.77-.578,1.265-.715a33.844,33.844,0,0,1,6.244-.908c.66,0,1.183-.248,1.238-.908,0-.77-.605-.908-1.21-.853a30.349,30.349,0,0,0-9.38,1.815c-2.7,1.045-2.751,2.943-1.32,4.951a16.526,16.526,0,0,0,13.34,7.4,31.465,31.465,0,0,0,5.089-.385,19.7,19.7,0,0,0,12.1-8.059,1.169,1.169,0,0,0,.275-1.183,6.085,6.085,0,0,0-1.705-2.283,6,6,0,0,0-2.558-1.238,36.889,36.889,0,0,0-6.491-.908c-.468,0-.853-.083-1.21.275h.055Z" transform="translate(51.492 72.328)" fill="#4169e1"/>
        <path id="Path_111" data-name="Path 111" d="M73.928,30.007c-.66.083-1.32.22-1.98.3-.5.083-1.073.275-1.265-.523-.138-.66-.44-1.293.44-1.705a22.359,22.359,0,0,0,2.5-1.4c.5-.33.99-.8.5-1.43a.956.956,0,0,0-1.32-.193.643.643,0,0,0-.193.193,2.5,2.5,0,0,1-.578.5c-1.183.743-2.228,1.568-3.713.275a2.176,2.176,0,0,0-3.081.44,2.043,2.043,0,0,0-.413.935,6.712,6.712,0,0,0,.633,4.318c.138.413.578.99,1.128.77a54.623,54.623,0,0,1,5.969-.825c.275-.165.935,0,1.54-.138a.87.87,0,0,0,.853-.908c-.028-.66-.55-.66-1.018-.605h0Zm-4.7.413c-.193.5-.825.275-1.238.44-.5-.083-1.183.523-1.43-.413a3.38,3.38,0,0,1,0-3.081.838.838,0,0,1,.44-.22,1.077,1.077,0,0,1,1.238.605c.248.935,1.43,1.54.99,2.668h0Z" transform="translate(113.282 43.544)" fill="#fff"/>
        <path id="Path_112" data-name="Path 112" d="M70.8,37.674c-1.733-.3-3.136-.578-4.511-.8-.523-.083-.908-.33-.8-.88.083-.633.605-.578,1.073-.5a34.311,34.311,0,0,0,7.317.853c.523,0,1.183.055,1.21.8s-.523,1.045-1.128,1.155a33.59,33.59,0,0,0-4.594,1.6c-.248.083-.66.055-.66.44s.413.33.66.385a17.534,17.534,0,0,0,3.576.523c.605,0,1.43.138,1.293.99s-.853.77-1.485.605c-2.283-.5-4.538-.99-6.821-1.458-.468-.083-.935-.248-.99-.8s.44-.688.88-.853A32.916,32.916,0,0,0,70.829,37.7H70.8Z" transform="translate(113.685 62.062)" fill="#fff"/>
        <path id="Path_113" data-name="Path 113" d="M73.936,25.147A3.939,3.939,0,0,1,72.863,28.7c-.358.33-.77.605-1.21.193a.8.8,0,0,1-.193-1.1.643.643,0,0,1,.193-.193,2.5,2.5,0,0,0,.44-3,1.388,1.388,0,0,0-1.6-.908c-.853.083-.908.468-.66,1.21a3.193,3.193,0,0,1-1.1,3.988,2.536,2.536,0,0,1-3.411-.193,3.171,3.171,0,0,1-.908-3.521c.275-.468.66-.963,1.293-.66.578.275.358.715.11,1.155-.385.8.083,1.348.605,1.843a.989.989,0,0,0,1.375.055,1.455,1.455,0,0,0,.633-1.733.248.248,0,0,0-.028-.138c-.66-2.393-.358-3.218,1.43-3.6a3.249,3.249,0,0,1,4.071,2.778v.248h0Z" transform="translate(112.421 38.475)" fill="#fff"/>
        <path id="Path_114" data-name="Path 114" d="M74.59,31.244l.11.853a1.641,1.641,0,0,1-1.045,2.09,2.094,2.094,0,0,1-.578.083c-2.2.275-4.4-.055-6.6.3-.605.083-.908-.385-.908-.963a22.124,22.124,0,0,0-.275-3.576c-.083-.578.083-1.045.688-1.1a.923.923,0,0,1,1.018.8v.22c0,.77.11,1.485.138,2.228s.468.688,1.018.715c.66,0,.633-.413.578-.853-.083-.5-.193-.99-.248-1.485s0-1.045.633-1.183.853.33.908.88c.055.33.11.66.138.99.165,1.678.77,2.035,2.421,1.485.5-.165.523-.468.468-.853-.083-.853-.138-1.733-.275-2.613-.083-.605-.138-1.155.605-1.265s1.018.468,1.1,1.073c.083.66.083,1.348.138,2.145H74.59Z" transform="translate(114.27 48.991)" fill="#fff"/>
        <path id="Path_115" data-name="Path 115" d="M63.564,52.727a4.5,4.5,0,0,0-1.623-1.348c-.605-.33-.99-.77-.523-1.375.413-.55.935-.3,1.4.083a28.577,28.577,0,0,0,3.6,2.7,5.873,5.873,0,0,0,1.76.88,1.025,1.025,0,0,1,.963,1.1.452.452,0,0,1-.055.275c-.275.77-.908.715-1.513.3-.358-.22-.715-.413-1.073-.66-1.513-1.018-1.458-.99-2.613.385-.633.77-.5,1.21.193,1.733a14.633,14.633,0,0,1,1.265,1.018c.385.358.908.8.33,1.348-.5.468-.963.22-1.4-.193q-2.022-1.857-4.208-3.548c-.578-.44-2.145-.605-1.293-1.76.715-.935,1.485.33,2.2.633.413.193.77.853,1.293.33a4.107,4.107,0,0,0,1.265-1.98h0v.083h0Z" transform="translate(102.466 86.976)" fill="#fff"/>
        <path id="Path_116" data-name="Path 116" d="M58.052,53.893c-1.623-.385-2.338.055-2.7,1.705A6.476,6.476,0,0,0,60,62.392h.77c1.073-.083,1.485-.8,1.678-1.733a7.311,7.311,0,0,0-4.4-6.739h0ZM60.17,60.3a.785.785,0,0,1-.633.22.883.883,0,0,1-.605-.275,6.593,6.593,0,0,1-2.173-3.713,1,1,0,0,1,.358-1.128c.413-.3.8-.083,1.128.165a7.209,7.209,0,0,1,2.476,3.246,1.213,1.213,0,0,1-.578,1.458h0Z" transform="translate(96.866 94.117)" fill="#fff"/>
        <path id="Path_117" data-name="Path 117" d="M73.972,41.621a5.8,5.8,0,0,1-.468,2.558,1.824,1.824,0,0,1-.908.853,2.122,2.122,0,0,1-1.238.138A59.215,59.215,0,0,0,65.2,44.014a.731.731,0,0,1-.8-.633v-.138c.055-.578.5-.825,1.1-.715,1.678.3,3.356.66,5.061.908.523.083,1.348.688,1.54-.3.193-.908.358-2.008-.963-2.338-1.43-.358-2.861-.66-4.291-.935-.66-.138-1.4-.248-1.265-1.045.165-.935.963-.633,1.623-.5,1.348.3,2.7.55,4.043.853a3.26,3.26,0,0,1,2.7,2.476h0Z" transform="translate(112.742 66.807)" fill="#fff"/>
        <path id="Path_118" data-name="Path 118" d="M58.6,62.741a1.53,1.53,0,0,1-.083-2.5,2.985,2.985,0,0,0,.33-3.6,2.89,2.89,0,0,0-2.751-1.623,4.845,4.845,0,0,0-2.971,1.87.818.818,0,0,0,.11,1.128h0a27.052,27.052,0,0,1,2.806,3.8c.633.963,1.4,1.843,2.09,2.778.33.468.77.743,1.238.3.55-.468.33-.935-.138-1.375-.22-.248-.385-.523-.605-.77h0ZM56.78,59.688c-.248.11-2.035-1.815-1.953-2.145a1.263,1.263,0,0,1,1.183-.935c.88-.083,1.4.385,1.6,1.32-.11.633-.055,1.4-.825,1.76Z" transform="translate(92.691 96.298)" fill="#fff"/>
        <path id="Path_119" data-name="Path 119" d="M62.081,17.151c.99.055,2.118.193,3.246.165A6.968,6.968,0,0,0,69.37,16.27a7.189,7.189,0,0,1,1.485-.66.906.906,0,0,1,1.265.3s0,.055.027.055c.248.523-.138.853-.523,1.128a.965.965,0,0,1-.22.138A11.919,11.919,0,0,0,65.849,22.4c-.385.578-.688,1.76-1.733.99-.99-.743.11-1.238.468-1.815.5-.8,1.705-1.568,1.348-2.393-.385-.88-1.733-.22-2.641-.413a4.662,4.662,0,0,0-1.238,0c-.5,0-.935-.138-.963-.743s.385-.77.99-.88h0Z" transform="translate(106.947 27.079)" fill="#fff"/>
        <path id="Path_120" data-name="Path 120" d="M71.3,35.041,66.679,32.7c-.33-.165-.743-.248-.908-.633a.787.787,0,0,1,.22-.8.762.762,0,0,1,1.018-.083,41.05,41.05,0,0,0,6.739,3.246.894.894,0,0,1,.715,1.018,1.063,1.063,0,0,1-.3.743,1.19,1.19,0,0,1-.715.358c-1.485.248-2.971.44-4.456.66l-2.338.358c-.55.083-1.073,0-1.1-.66s.385-.825.963-.908c1.568-.193,3.108-.44,4.676-.66l.083-.33H71.3Z" transform="translate(114.755 54.326)" fill="#fff"/>
        <path id="Path_121" data-name="Path 121" d="M65.449,25.821a1.109,1.109,0,0,1-.935-.908,10.671,10.671,0,0,0-1.76-4.1c-.33-.523-.605-1.128.138-1.485.66-.3,1.128.138,1.293.77.385,1.238,1.045,1.4,2.145.8A22.033,22.033,0,0,0,70.9,18.642a1.012,1.012,0,0,1,1.43.165c.028.055.083.11.11.165.385.633-.11,1.045-.605,1.265-1.6.715-3.191,1.43-4.814,2.09-1.045.385-1.733.8-.935,2.035.468.688,0,1.155-.605,1.458h0Z" transform="translate(109.273 32.244)" fill="#fff"/>
        <path id="Path_122" data-name="Path 122" d="M64.648,24.526c-.468.083-.908,0-.99-.578-.083-.633.275-.963.88-1.128,1.9-.523,3.768-1.073,5.639-1.623a6.881,6.881,0,0,0,1.045-.413c.605-.3,1.265-.523,1.568.275.248.715-.33,1.018-.935,1.21-1.568.5-3.163.99-4.759,1.458-.8.248-1.6.523-2.448.77h0Z" transform="translate(111.422 35.905)" fill="#fff"/>
        <path id="Path_123" data-name="Path 123" d="M66.433,34.05c1.54.11,3.191.22,4.869.33h2.145c.55,0,1.238.055,1.183.77-.028.66-.523.963-1.238.908-1.128-.11-2.255-.138-3.356-.248a19.668,19.668,0,0,0-3.6-.083c-.578.055-1.045-.165-1.073-.77s.44-.825,1.128-.88h-.055Z" transform="translate(114.422 59.608)" fill="#fff"/>
        <path id="Path_124" data-name="Path 124" d="M60.042,56.139a5.138,5.138,0,0,0-.3-2.943c-.22-.605-.275-1.128.413-1.32a.844.844,0,0,1,1.073.468.767.767,0,0,1,.027.5c-.11,1.43.743,1.98,1.87,2.366.99.358,1.925.8,2.888,1.21.55.248.963.66.633,1.265s-.88.523-1.43.248c-.853-.413-1.733-.853-2.613-1.238-.55-.22-.963-.385-.77.578a2.682,2.682,0,0,0,.44,1.21,3.164,3.164,0,0,0,.88.935c.523.385,1.485.77.8,1.623s-1.238,0-1.76-.385c-1.485-1.1-2.393-2.806-3.988-3.8-.358-.22-.715-.44-1.045-.66-.468-.275-.688-.66-.385-1.155a.842.842,0,0,1,1.128-.3c.028,0,.055.028.083.055a9.238,9.238,0,0,0,2.035,1.32h0Z" transform="translate(99.139 90.716)" fill="#fff"/>
        <path id="Path_125" data-name="Path 125" d="M69.92,49.983c-2.723-.605-5.446-1.183-8.2-1.815a.863.863,0,0,0-1.018.523,1,1,0,0,0,.193,1.155c1.43,1.788,2.806,3.6,4.236,5.391a7.958,7.958,0,0,0,.963.963c.385.33.853.66,1.32.138.523-.578.055-.935-.385-1.32-1.348-1.238-1.348-1.6-.22-3.026.523-.66,1.1-1.128,2.008-.66a4.666,4.666,0,0,0,.853.165.83.83,0,0,0,.935-.66c.11-.523-.275-.77-.688-.88h0Zm-5.281,1.953a3.245,3.245,0,0,1-1.32-1.4c-.138-.248,0-.55.3-.468.605.165,1.458,0,1.76.633.248.468-.358.853-.743,1.238Z" transform="translate(106.094 84.273)" fill="#fff"/>
        <path id="Path_126" data-name="Path 126" d="M72.789,43.7a68.927,68.927,0,0,1-8.582-.385.763.763,0,0,0-.55.083.869.869,0,0,0-.385.385.942.942,0,0,0-.138.605.718.718,0,0,0,.275.55c2.035,2.09,4.043,4.181,6.134,6.216.385.385.935,1.1,1.568.33.578-.688-.138-1.045-.523-1.43a1.5,1.5,0,0,1-.385-2.09,1.166,1.166,0,0,0,.138-.193,4.254,4.254,0,0,0,.523-.99c.44-.908.715-2.008,1.98-1.458.66,0,1.1-.22,1.1-.77,0-.66-.55-.935-1.128-.908h0V43.7Zm-3.438,2.008c-.248.523-.5,1.183-.825,1.815-.193.33-.523.165-.743-.055-.578-.578-1.155-1.183-1.733-1.788-.3-.33-.165-.55.248-.55.853,0,1.733,0,2.613.055.275,0,.523.055.468.523h0Z" transform="translate(110.515 75.787)" fill="#fff"/>
        <path id="Path_127-2" data-name="Path 127" d="M71.917,48.455c-.88-.055-1.76-.138-2.613-.193-.66-.055-1.155-.248-1.293-1.073A2.1,2.1,0,0,0,66.2,45.484a4.029,4.029,0,0,0-4.538,3.438.762.762,0,0,1-.028.248c0,.44.11.963.605.963,1.32,0,2.035,1.045,3.026,1.6,1.073.605,2.09,1.348,3.191,1.98.523.3,1.155.468,1.513-.248s-.248-.908-.77-1.128a10.317,10.317,0,0,1-1.21-.66c-.33-.275-1.045-.358-.66-1.1A1.172,1.172,0,0,1,68.7,49.8c1.018.165,2.09.193,3.108.275.5-.083.99-.275.99-.77s-.385-.77-.908-.825h0Zm-6.3,1.4a3.9,3.9,0,0,1-2.09-1.183c-.11-.44,1.018-1.623,1.65-1.705a1.188,1.188,0,0,1,1.4.908v.275c-.055.66-.138,1.4-.99,1.705Z" transform="translate(107.893 79.558)" fill="#fff"/>
        <path id="Path_128-2" data-name="Path 128" d="M73.928,30.007c-.66.083-1.32.22-1.98.3-.5.083-1.073.275-1.265-.523-.138-.66-.44-1.293.44-1.705a22.359,22.359,0,0,0,2.5-1.4c.5-.33.99-.8.5-1.43a.956.956,0,0,0-1.32-.193.643.643,0,0,0-.193.193,2.5,2.5,0,0,1-.578.5c-1.183.743-2.228,1.568-3.713.275a2.176,2.176,0,0,0-3.081.44,2.043,2.043,0,0,0-.413.935,6.712,6.712,0,0,0,.633,4.318c.138.413.578.99,1.128.77a54.623,54.623,0,0,1,5.969-.825c.275-.165.935,0,1.54-.138a.87.87,0,0,0,.853-.908c-.028-.66-.55-.66-1.018-.605h0Zm-4.7.413c-.193.5-.825.275-1.238.44-.5-.083-1.183.523-1.43-.413a3.38,3.38,0,0,1,0-3.081.838.838,0,0,1,.44-.22,1.077,1.077,0,0,1,1.238.605c.248.935,1.43,1.54.99,2.668h0Z" transform="translate(113.282 43.544)" fill="#db4437"/>
        <path id="Path_129-2" data-name="Path 129" d="M70.8,37.674c-1.733-.3-3.136-.578-4.511-.8-.523-.083-.908-.33-.8-.88.083-.633.605-.578,1.073-.5a34.311,34.311,0,0,0,7.317.853c.523,0,1.183.055,1.21.8s-.523,1.045-1.128,1.155a33.59,33.59,0,0,0-4.594,1.6c-.248.083-.66.055-.66.44s.413.33.66.385a17.534,17.534,0,0,0,3.576.523c.605,0,1.43.138,1.293.99s-.853.77-1.485.605c-2.283-.5-4.538-.99-6.821-1.458-.468-.083-.935-.248-.99-.8s.44-.688.88-.853A32.916,32.916,0,0,0,70.829,37.7H70.8Z" transform="translate(113.685 62.062)" fill="#db4437"/>
        <path id="Path_130" data-name="Path 130" d="M73.936,25.147A3.939,3.939,0,0,1,72.863,28.7c-.358.33-.77.605-1.21.193a.8.8,0,0,1-.193-1.1.643.643,0,0,1,.193-.193,2.5,2.5,0,0,0,.44-3,1.388,1.388,0,0,0-1.6-.908c-.853.083-.908.468-.66,1.21a3.193,3.193,0,0,1-1.1,3.988,2.536,2.536,0,0,1-3.411-.193,3.171,3.171,0,0,1-.908-3.521c.275-.468.66-.963,1.293-.66.578.275.358.715.11,1.155-.385.8.083,1.348.605,1.843a.989.989,0,0,0,1.375.055,1.455,1.455,0,0,0,.633-1.733.248.248,0,0,0-.028-.138c-.66-2.393-.358-3.218,1.43-3.6a3.249,3.249,0,0,1,4.071,2.778v.248h0Z" transform="translate(112.421 38.475)" fill="#db4437"/>
        <path id="Path_131" data-name="Path 131" d="M74.59,31.244l.11.853a1.641,1.641,0,0,1-1.045,2.09,2.094,2.094,0,0,1-.578.083c-2.2.275-4.4-.055-6.6.3-.605.083-.908-.385-.908-.963a22.124,22.124,0,0,0-.275-3.576c-.083-.578.083-1.045.688-1.1a.923.923,0,0,1,1.018.8v.22c0,.77.11,1.485.138,2.228s.468.688,1.018.715c.66,0,.633-.413.578-.853-.083-.5-.193-.99-.248-1.485s0-1.045.633-1.183.853.33.908.88c.055.33.11.66.138.99.165,1.678.77,2.035,2.421,1.485.5-.165.523-.468.468-.853-.083-.853-.138-1.733-.275-2.613-.083-.605-.138-1.155.605-1.265s1.018.468,1.1,1.073c.083.66.083,1.348.138,2.145H74.59Z" transform="translate(114.27 48.991)" fill="#db4437"/>
        <path id="Path_132" data-name="Path 132" d="M63.564,52.727a4.5,4.5,0,0,0-1.623-1.348c-.605-.33-.99-.77-.523-1.375.413-.55.935-.3,1.4.083a28.577,28.577,0,0,0,3.6,2.7,5.873,5.873,0,0,0,1.76.88,1.025,1.025,0,0,1,.963,1.1.452.452,0,0,1-.055.275c-.275.77-.908.715-1.513.3-.358-.22-.715-.413-1.073-.66-1.513-1.018-1.458-.99-2.613.385-.633.77-.5,1.21.193,1.733a14.633,14.633,0,0,1,1.265,1.018c.385.358.908.8.33,1.348-.5.468-.963.22-1.4-.193q-2.022-1.857-4.208-3.548c-.578-.44-2.145-.605-1.293-1.76.715-.935,1.485.33,2.2.633.413.193.77.853,1.293.33a4.107,4.107,0,0,0,1.265-1.98h0v.083h0Z" transform="translate(102.466 86.976)" fill="#db4437"/>
        <path id="Path_133" data-name="Path 133" d="M58.052,53.893c-1.623-.385-2.338.055-2.7,1.705A6.476,6.476,0,0,0,60,62.392h.77c1.073-.083,1.485-.8,1.678-1.733a7.311,7.311,0,0,0-4.4-6.739h0ZM60.17,60.3a.785.785,0,0,1-.633.22.883.883,0,0,1-.605-.275,6.593,6.593,0,0,1-2.173-3.713,1,1,0,0,1,.358-1.128c.413-.3.8-.083,1.128.165a7.209,7.209,0,0,1,2.476,3.246,1.213,1.213,0,0,1-.578,1.458h0Z" transform="translate(96.866 94.117)" fill="#db4437"/>
        <path id="Path_134" data-name="Path 134" d="M73.972,41.621a5.8,5.8,0,0,1-.468,2.558,1.824,1.824,0,0,1-.908.853,2.122,2.122,0,0,1-1.238.138A59.215,59.215,0,0,0,65.2,44.014a.731.731,0,0,1-.8-.633v-.138c.055-.578.5-.825,1.1-.715,1.678.3,3.356.66,5.061.908.523.083,1.348.688,1.54-.3.193-.908.358-2.008-.963-2.338-1.43-.358-2.833-.66-4.291-.935-.66-.138-1.4-.248-1.265-1.045.165-.935.963-.633,1.623-.5,1.348.3,2.7.55,4.043.853a3.26,3.26,0,0,1,2.7,2.476h0Z" transform="translate(112.742 66.807)" fill="#db4437"/>
        <path id="Path_135" data-name="Path 135" d="M58.6,62.741a1.53,1.53,0,0,1-.083-2.5,2.985,2.985,0,0,0,.33-3.6,2.89,2.89,0,0,0-2.751-1.623,4.845,4.845,0,0,0-2.971,1.87.818.818,0,0,0,.11,1.128h0a27.052,27.052,0,0,1,2.806,3.8c.633.963,1.4,1.843,2.09,2.778.33.468.77.743,1.238.3.55-.468.33-.935-.138-1.375-.22-.248-.385-.523-.605-.77h0ZM56.78,59.688c-.248.11-2.035-1.815-1.953-2.145a1.263,1.263,0,0,1,1.183-.935c.88-.083,1.4.385,1.6,1.32-.11.633-.055,1.4-.825,1.76Z" transform="translate(92.691 96.298)" fill="#db4437"/>
        <path id="Path_136" data-name="Path 136" d="M62.081,17.151c.99.055,2.118.193,3.246.165A6.968,6.968,0,0,0,69.37,16.27a7.189,7.189,0,0,1,1.485-.66.906.906,0,0,1,1.265.3s0,.055.027.055c.248.523-.138.853-.523,1.128a.965.965,0,0,1-.22.138A11.919,11.919,0,0,0,65.849,22.4c-.385.578-.688,1.76-1.733.99-.99-.743.11-1.238.468-1.815.5-.8,1.705-1.568,1.348-2.393-.385-.88-1.733-.22-2.641-.413a4.662,4.662,0,0,0-1.238,0c-.5,0-.935-.138-.963-.743s.385-.77.99-.88h0Z" transform="translate(106.947 27.079)" fill="#db4437"/>
        <path id="Path_137" data-name="Path 137" d="M71.29,35.041,66.669,32.7c-.33-.165-.743-.248-.908-.633a.787.787,0,0,1,.22-.8A.762.762,0,0,1,67,31.191a41.049,41.049,0,0,0,6.739,3.246.894.894,0,0,1,.715,1.018,1.063,1.063,0,0,1-.3.743,1.19,1.19,0,0,1-.715.358c-1.485.248-2.971.44-4.456.66l-2.338.358c-.55.083-1.073,0-1.1-.66s.385-.825.963-.908c1.568-.193,3.108-.44,4.676-.66l.083-.33h.028Z" transform="translate(114.737 54.326)" fill="#db4437"/>
        <path id="Path_138" data-name="Path 138" d="M65.449,25.821a1.109,1.109,0,0,1-.935-.908,10.671,10.671,0,0,0-1.76-4.1c-.33-.523-.605-1.128.138-1.485.66-.3,1.128.138,1.293.77.385,1.238,1.045,1.4,2.145.8A22.033,22.033,0,0,0,70.9,18.642a1.012,1.012,0,0,1,1.43.165c.028.055.083.11.11.165.385.633-.11,1.045-.605,1.265-1.6.715-3.191,1.43-4.814,2.09-1.045.385-1.733.8-.935,2.035.468.688,0,1.155-.605,1.458h0Z" transform="translate(109.273 32.244)" fill="#db4437"/>
        <path id="Path_139" data-name="Path 139" d="M64.648,24.526c-.468.083-.908,0-.99-.578-.083-.633.275-.963.88-1.128,1.9-.523,3.768-1.073,5.639-1.623a6.881,6.881,0,0,0,1.045-.413c.605-.3,1.265-.523,1.568.275.248.715-.33,1.018-.935,1.21-1.568.5-3.163.99-4.759,1.458-.8.248-1.6.523-2.448.77h0Z" transform="translate(111.422 35.905)" fill="#db4437"/>
        <path id="Path_140" data-name="Path 140" d="M66.433,34.05c1.54.11,3.191.22,4.869.33h2.145c.55,0,1.238.055,1.183.77-.028.66-.523.963-1.238.908-1.128-.11-2.255-.138-3.356-.248a19.668,19.668,0,0,0-3.6-.083c-.578.055-1.045-.165-1.073-.77s.44-.825,1.128-.88h-.055Z" transform="translate(114.422 59.608)" fill="#db4437"/>
        <path id="Path_141" data-name="Path 141" d="M60.042,56.139a5.138,5.138,0,0,0-.3-2.943c-.22-.605-.275-1.128.413-1.32a.844.844,0,0,1,1.073.468.767.767,0,0,1,.027.5c-.11,1.43.743,1.98,1.87,2.366.99.358,1.925.8,2.888,1.21.55.248.963.66.633,1.265s-.88.523-1.43.248c-.853-.413-1.733-.853-2.613-1.238-.55-.22-.963-.385-.77.578a2.682,2.682,0,0,0,.44,1.21,3.164,3.164,0,0,0,.88.935c.523.385,1.485.77.8,1.623s-1.238,0-1.76-.385c-1.485-1.1-2.393-2.806-3.988-3.8-.358-.22-.715-.44-1.045-.66-.468-.275-.688-.66-.385-1.155a.842.842,0,0,1,1.128-.3c.028,0,.055.028.083.055a9.238,9.238,0,0,0,2.035,1.32h0Z" transform="translate(99.139 90.716)" fill="#db4437"/>
        <path id="Path_142" data-name="Path 142" d="M69.92,49.983c-2.723-.605-5.446-1.183-8.2-1.815a.863.863,0,0,0-1.018.523,1,1,0,0,0,.193,1.155c1.43,1.788,2.806,3.6,4.236,5.391a7.958,7.958,0,0,0,.963.963c.385.33.853.66,1.32.138.523-.578.055-.935-.385-1.32-1.348-1.238-1.348-1.6-.22-3.026.523-.66,1.1-1.128,2.008-.66a4.666,4.666,0,0,0,.853.165.83.83,0,0,0,.935-.66c.11-.523-.275-.77-.688-.88h0Zm-5.281,1.953a3.245,3.245,0,0,1-1.32-1.4c-.138-.248,0-.55.3-.468.605.165,1.458,0,1.76.633.248.468-.358.853-.743,1.238Z" transform="translate(106.094 84.273)" fill="#db4437"/>
        <path id="Path_143" data-name="Path 143" d="M72.779,43.7a68.927,68.927,0,0,1-8.582-.385.763.763,0,0,0-.55.083.869.869,0,0,0-.385.385.942.942,0,0,0-.138.605.718.718,0,0,0,.275.55c2.035,2.09,4.043,4.181,6.134,6.216.385.385.935,1.1,1.568.33.578-.688-.138-1.045-.523-1.43a1.5,1.5,0,0,1-.385-2.09,1.166,1.166,0,0,0,.138-.193,4.255,4.255,0,0,0,.523-.99c.44-.908.715-2.008,1.98-1.458.66,0,1.1-.22,1.1-.77,0-.66-.55-.935-1.128-.908h0V43.7Zm-3.411,2.008c-.248.523-.5,1.183-.825,1.815-.193.33-.523.165-.743-.055-.578-.578-1.155-1.183-1.733-1.788-.3-.33-.165-.55.248-.55.853,0,1.733,0,2.613.055.275,0,.523.055.468.523h0Z" transform="translate(110.497 75.787)" fill="#db4437"/>
        <path id="Path_144" data-name="Path 144" d="M71.917,48.455c-.88-.055-1.76-.138-2.613-.193-.66-.055-1.155-.248-1.293-1.073A2.1,2.1,0,0,0,66.2,45.484a4.029,4.029,0,0,0-4.538,3.438.762.762,0,0,1-.028.248c0,.44.11.963.605.963,1.32,0,2.035,1.045,3.026,1.6,1.073.605,2.09,1.348,3.191,1.98.523.3,1.155.468,1.513-.248s-.248-.908-.77-1.128a10.317,10.317,0,0,1-1.21-.66c-.33-.275-1.045-.358-.66-1.1A1.172,1.172,0,0,1,68.7,49.8c1.018.165,2.09.193,3.108.275.5-.083.99-.275.99-.77s-.385-.77-.908-.825h0Zm-6.3,1.4a3.9,3.9,0,0,1-2.09-1.183c-.11-.44,1.018-1.623,1.65-1.705a1.188,1.188,0,0,1,1.4.908v.275c-.055.66-.138,1.4-.99,1.705Z" transform="translate(107.893 79.558)" fill="#db4437"/>
        <path id="Path_145" data-name="Path 145" d="M54.7,60.1c.083,1.293-.523,2.173-1.54,2.228a2.08,2.08,0,0,1-2.366-1.76v-.3a2.344,2.344,0,0,1,1.87-2.228A2.215,2.215,0,0,1,54.7,60.1Z" transform="translate(88.917 101.605)" fill="#db4437"/>
        <path id="Path_146" data-name="Path 146" d="M157.814,84.691a4.308,4.308,0,0,0,.138-.825c-.33-3.521-.633-7.014-1.293-10.507A74.148,74.148,0,0,0,147,47.943a1.759,1.759,0,0,1-.275-.715,1.186,1.186,0,0,1,.165-.743c1.678-3.383,3.3-6.794,5.034-10.15.468-.935.963-2.118.578-2.888-.358-.715-1.705-.578-2.641-.5-5.584.5-11.195.083-16.779.275a80.262,80.262,0,0,0-8.142.193l-17.494.083a2.916,2.916,0,0,1-3.136-1.623Q95.2,17.686,85.969,3.548A15.743,15.743,0,0,0,83.713.44c-.715-.66-.99-.578-1.458.248-1.925,3.191-3.906,6.326-5.886,9.49q-7.22,11.594-14.386,23.16a1.306,1.306,0,0,1-1.238.743c-3.3-.11-6.6.11-9.9.165-11.5.165-23.023.44-34.52.275-1.76,0-1.843.165-1.348,1.87.743,2.476,2.366,4.566,3.246,6.987.578,1.568,1.183,2.806,0,4.373a36.558,36.558,0,0,0-3.081,6.134,75.4,75.4,0,0,0,57.1,107.108,1.177,1.177,0,0,1,.99.853c.825,1.843,1.65,3.658,2.476,5.5l5.364,11.883a1.6,1.6,0,0,0,.605.8,1.647,1.647,0,0,0,.935.3c.77.028.853-.578,1.128-1.1,2.641-5.639,5.309-11.222,7.922-16.889a2.483,2.483,0,0,1,.77-.99,2.511,2.511,0,0,1,1.155-.468c1.293-.165,2.531-.523,3.8-.77a73.812,73.812,0,0,0,25.526-9.985,81.127,81.127,0,0,0,11.553-8.967,74.4,74.4,0,0,0,21.015-35.62,67.391,67.391,0,0,0,2.338-16.394,30.869,30.869,0,0,0,0-4.511h0v.055ZM149.7,83.536a1.876,1.876,0,0,1,.33.028.661.661,0,0,1,.44.44v.33c-.083.633-.248,1.238-.385,1.87h-.3c-.11-.633-.248-1.265-.33-1.9C149.452,84.058,149.177,83.563,149.7,83.536ZM107.808,35.015c5.749,0,11.5-.083,17.246-.138H148.93q1.568,0,.908,1.485-13.987,30.944-28.826,61.531a2.519,2.519,0,0,1-2.806,1.76,30.413,30.413,0,0,0-3.878,0c-.825,0-1.018-.193-.66-.963,1.733-3.8,3.356-7.592,5.116-11.387q8.953-19.557,17.961-39.086c.8-1.733,1.6-3.466,2.476-5.171a2.321,2.321,0,0,0,.358-1.9c-.385-.908-.935,0-1.43-.028-4.731-.22-9.462.193-14.193.138-3.823,0-7.674.083-11.5.165a2.586,2.586,0,0,1-2.7-1.43c-.77-1.32-1.623-2.613-2.5-3.851-.55-.77-.715-1.183.578-1.183h0v.055h0ZM93.258,101.772q10.315,15.1,20.6,30.257c.055.055,0,.165.083.5-1.21,0-2.393.055-3.548,0-5.8-.3-11.58-1.183-17.411-.908-1.76.083-3.521-.3-5.281-.055a8.257,8.257,0,0,0-3.466,1.65c-.33.22-.605.66-1.045.083a6.117,6.117,0,0,0-5.776-1.788c-2.421.083-4.869.358-7.289.468-5.529.193-11.085.33-16.834.523,1.788-2.778,3.466-5.5,5.226-8.169,1.54-2.311,3.191-4.566,4.566-6.9,2.806-4.649,5.969-9.077,8.884-13.67.413-.633.935-1.183,1.375-1.815.193-.275.578-.688.33-1.045a1.448,1.448,0,0,0-.55-.44,1.915,1.915,0,0,0-.688-.138c-5.061.193-10.095.385-15.156.55a1.7,1.7,0,0,1-1.815-1.018c-3.026-6.711-6.134-13.368-9.215-20.079-.413-.88.578-2.888,1.485-2.943a6.173,6.173,0,0,0,3.136-1.183c.99-.688,1.6-.248,2.173.468s1.073,1.458,1.65,2.173c.22.275.633.55.99.138.275-.385-.083-.605-.33-.8a15.527,15.527,0,0,1-1.76-2.255c-.413-.44-.358-.853.33-.77a4.529,4.529,0,0,0,3.191-1.1,5.54,5.54,0,0,1,6.436-.248c.853.523,1.9.605,2.751,1.21a.443.443,0,0,0,.193.11h.22a.25.25,0,0,0,.193-.083.73.73,0,0,0,.165-.138.526.526,0,0,0,0-.5.37.37,0,0,0-.165-.193.444.444,0,0,0-.248-.083c-1.76-.44-.908-1.485-.55-2.366a77.47,77.47,0,0,1,4.456-6.629c.248-.5.77-.3,1.155-.44.275-.083.578-.248.55-.578-.028-.413-.385-.385-.66-.3-1.183.385-1.54-.715-2.173-1.238-.33-.248-.33-.66.083-.963a22.782,22.782,0,0,0,5.254-5.639c1.32-1.76,3.466-2.586,4.511-4.566.083-.165.193-.33.275-.5a1.606,1.606,0,0,1,.5.11,1.773,1.773,0,0,1,.083.55c.083.44-.193.99.523,1.568.055-1.183.523-2.145-.5-2.916.5-.935,1.6-1.293,2.228-2.338.66,1.705,1.485,2.558,3.438,1.953.935-.275.935,1.293,1.513,2.118-1.128-.138-1.43.138-.935,1.128.248.5.66,1.183-.385,1.65-.248.11,0,1.65.3,2.393a2.093,2.093,0,0,1-.77,2.806A17.234,17.234,0,0,0,81.788,63.1a11.558,11.558,0,0,1-2.145,2.035c-1.375,1.21-1.6,1.21-2.421-.44-.385-.8-.99-.33-1.485-.358-.55-.028-1.32-.99-1.54-.138-.193.77.935.578,1.513.8a1.553,1.553,0,0,1,1.183,1.43c-.083.99.413,1.375,1.155,1.733a2.807,2.807,0,0,1,1.238,1.513,10.8,10.8,0,0,0,2.256,3.933,6.965,6.965,0,0,1-.33,3.961c-.138.138-.385.22-.44.358-.138.578-1.155.8-.77,1.54.33.633,1.073.193,1.568.385,1.045.385,2.255,0,2.145-.8-.193-1.32.413-1.733,1.238-2.283.248-.138.083-.633.633-.743,1.073-.193.853-1.045.77-1.815v-.358a1.6,1.6,0,0,1,.248-.275c.055,0,.083-.028.138,0,.055,0,.11,0,.138.055a.088.088,0,0,1,.083.083v.138c.055.578-.193,1.128.468,1.623.5.385-.413.99-.11,1.623.468.083.853-.77,1.458-.083.358.385.5-.275.633-.605a19.593,19.593,0,0,1,1.953-3.576,9.324,9.324,0,0,1-.193,1.76c-.083.358-.22.66.138.88s.55-.138.853-.275a2.552,2.552,0,0,0,1.54-2.751,1.148,1.148,0,0,1,.853-.963c0,1.293-.275,2.558.688,3.548.165.165-.275.3-.44.413-.935.688-1.843,1.375-2.778,2.008-.275.22-.605.44-.275.77.248.275.5-.083.77-.165a12.44,12.44,0,0,1,4.428-2.778c.358-.138.468-.523.825-.578.385-.44.77-.825,1.155-1.265,1.238-1.485,1.87-1.513,3.3-.248.3.275.3.99.853.825.743-.193-.11-.963.358-1.375.935.523,1.678,1.1.99,2.311-.165.275-.275.605.083.715,1.32.44,2.173,1.733,3.576,2.008.358.083.908.385.908-.138,0-1.32.688-.605,1.183-.468a11.017,11.017,0,0,1,3.741,2.338,18.008,18.008,0,0,0,2.145,1.678c.413.275,1.128.578,1.375-.055.275-.715-.523-.468-.908-.633a2.9,2.9,0,0,1-1.43-1.128c.11-.248.413-.385.55-.605a.465.465,0,0,0,.083-.275c1.045-.55,1.4.33,1.9.908.248.275.358.853.77.605.33-.193.853-.193,1.045-.605a.732.732,0,0,0,.083-.33V75.449a2.758,2.758,0,0,0-.633.853,6.425,6.425,0,0,0-.22,2.888c-.578-.908-1.9-1.183-2.145-2.118s.5-1.953.66-2.971a8.319,8.319,0,0,0-1.238,1.843,6.253,6.253,0,0,0-.605,2.118c-.275.3-.55.633-.8.935a1.914,1.914,0,0,1-.248-2.586,24.852,24.852,0,0,1,1.43-2.311c.55-.8,1.1-1.65,2.311-.853a1.123,1.123,0,0,0,1.1-.083c.22-.138.44-.193.605.083.578.88,1.1,1.815,1.705,2.668.853,1.128,0,2.008-.44,2.888-3.081,6.6-6.189,13.148-9.27,19.722a1.718,1.718,0,0,1-1.733,1.183c-5.226-.055-10.48.385-15.706.083-.5,0-.853.055-1.1.44-.385.55-.055.963.248,1.43h0l-.055.055-.165.055h.027ZM105.14,116.46c1.238-2.09,1.953-4.4,3.053-6.574.248-.5.66-.468,1.1-.468h2.586v-.138h1.733c1.76,0,1.733-.055.99,1.458-1.678,3.466-3.356,6.959-4.979,10.452-.413.853-.715.935-1.183.11l-.165-.248-3.108-4.649h0v.055h0Zm8.554-43.349a9.114,9.114,0,0,1-1.155,3.163c-.523-.605-.33-1.21-.385-1.788,0-.33.138-.908-.44-.853-.468.028-.275.523-.248.825.055.853.11,1.705.193,2.613-.963-.138-1.65-.8-2.558-.908-.523-.055-1.045-.22-1.513.11-1.073.715-1.073-.028-1.1-.77a12.449,12.449,0,0,0-.055-3.356c-.853.825-.22,1.843-.77,2.751-.633-.88-.66-2.035-1.65-2.586-.605-.358-1.155-.935-1.87-.193-.385.385-.688.083-1.018-.11-.193-.11-.5-.44-.275-.5.715-.193,0-1.1.77-1.21a12.561,12.561,0,0,1,9.325,1.375,17.691,17.691,0,0,0,1.953.88c.358-.138.8.3,1.1-.33.413-.935,1.073-.468,1.623-.138.853.523.165.88-.193,1.293-.385.468-.715.963-1.128,1.513-.468-.55.083-.908.055-1.348s-.055-.77-.605-.385h0l-.055-.055Zm-9.682-3.8a10.236,10.236,0,0,1-3.658.22l-.3-.413c.853-.8,1.76-1.54,2.586-2.366a.914.914,0,0,1,1.293-.083h0a2.006,2.006,0,0,1,.715.8,1.974,1.974,0,0,1,.193,1.045c0,.578-.44.715-.853.8h.028ZM101.7,66.262c-.66-.055-.66-.715-.853-1.155-.11-.248.083-.578.3-.5a1.411,1.411,0,0,1,.633.413,3.264,3.264,0,0,1,.44.633c0,.385-.22.633-.5.605h0Zm-.88.8a1.1,1.1,0,0,1-.963,1.073c-.5.11-.578-.44-.605-.8,0-.605.5-.853.963-1.128.523.055.605.5.605.853Zm-2.971,1.925c-.22-.5-.083-.88.385-1.018.578-.138.633.358.578.715a2.088,2.088,0,0,0,.468,1.43c.248.385,0,.605-.275.825s-.523.468-.853.275a.378.378,0,0,1-.165-.523.4.4,0,0,1,.055-.083c.33-.578,0-1.1-.193-1.623Zm-6.409,2.366c.165.633-.99.743-1.21.468-.33-.358-1.1-.743-.715-1.513-.908.22-1.293,1.1-1.925,1.623a4.546,4.546,0,0,1-1.815,1.1,10.629,10.629,0,0,1,2.338-3.081,6.19,6.19,0,0,0,1.65-2.2l-.193-.248c.523-.44,1.32-.66,1.43-1.513,1.32-.33,2.008-1.43,2.916-2.283l.578-.578c.99-.715,1.843-2.008,3.328-.66l-1.375.908a9.617,9.617,0,0,0-2.09,1.705,3.052,3.052,0,0,0-1.265.935.312.312,0,0,0-.083.22,10.45,10.45,0,0,0-2.063,1.733l-.5.33-.083.11c-.3.468-.825.853-.853,1.485h0c1.183.165,1.733-.385,1.76-1.54.605-.605,1.43-.963,1.843-1.76a1.909,1.909,0,0,0,.138-.358c.468.083,1.1-.605,1.4.275,0,1.155-1.073,1.348-1.65,1.98-.743.825-1.98,1.265-1.6,2.833h.028ZM89.132,72.7c0,.468-.193.853-.8.523-.275,0-.715.275-.578-.358a1.174,1.174,0,0,1,.88-.99C89.1,71.818,89.132,72.341,89.132,72.7Zm-5.8,1.485c-.193-.193-.275-.523,0-.605.825-.385.688-1.128.8-1.815.055-.3.275-.88.743-.55.248.193.853.44.578.99-.358.715-.77,1.43-1.183,2.118a1.347,1.347,0,0,1-.358.33,4.287,4.287,0,0,1-.55-.44h0Zm0,1.513c-.055.275-.083.605-.358.55-.5-.083-.66-.468-.633-.935,0-.248.055-.523.385-.413a.624.624,0,0,1,.44.3.846.846,0,0,1,.165.523h0Zm.77-7.289.165-.083h.165a.752.752,0,0,0,.138.11c0,.055.055.11.055.165.11.688.33,1.4-.715,1.9a4.271,4.271,0,0,1-.11-.578c.083-.523-.275-1.155.3-1.568h0v.055Zm-.44-.633c-.385.5-.8,1.155-1.6.523.385-.5.743-.99,1.128-1.513l1.815-1.98a2.178,2.178,0,0,0,1.1-.825l1.238-.853,1.045-.468.083-.193c.138-.358.193-.688-.523-.413a3.874,3.874,0,0,0-1.018.743l-1.238.853c-.66-.385-.165-.578.055-.935.385-.578,1.925-.578,1.045-1.9-.083-.138.55-.688.99-.853-.825-.935-.248-2.228-.8-3.273a2.175,2.175,0,0,1-.275-.935c0-.33-.275-.853.248-.963s.44.468.605.8a7.324,7.324,0,0,1,.88,4.373l1.348,1.485c0,.715-.523,1.045-1.045,1.32l-.193.083.11.275-.605.523a8.164,8.164,0,0,0-1.953,1.815,16.6,16.6,0,0,0-2.448,2.366h0v-.055ZM81.6,71.461c-.5.028-.578-.413-.66-.77s0-.688.468-.688c.413-.028.66.138.578.578-.083.3.248.853-.385.88h0Zm3.328-7.234-.275.33c-.22,0-.5,0-.5-.275a.34.34,0,0,1,.11-.22.493.493,0,0,1,.193-.138c.275-.083.413.11.468.33h0Zm-.853-.853c-1.238-.33-1.1,1.018-1.733,1.43l-.138.083-.743.55a1.247,1.247,0,0,0-.523.3,1.209,1.209,0,0,0-.33.5c-.33.248-.66.578-1.21.11a44.321,44.321,0,0,0,3.741-3.8c.165-.22.385-.468.715-.193s.5.578.22.963h0v.055Zm-3.136,3.548c.275-.33.55-.633.825-.963l.77-.633.22-.193c1.018.193.165.715.165,1.073l-.193.193a2.458,2.458,0,0,0-.8.88,2.292,2.292,0,0,0-.11.413c-.385.275-.33.88-.853,1.155a1.514,1.514,0,0,1-.33-.963,1.54,1.54,0,0,1,.358-.963h-.055Zm12.6-3.631a8.268,8.268,0,0,0-2.421,2.366c-.055.083-.083.193-.138.275h-.193c-.715.083-1.045.715-1.513,1.183-.248.083-.5.385-.715.083a1.07,1.07,0,0,1-.193-.633.883.883,0,0,1,.275-.605A12.474,12.474,0,0,0,91.3,63.676a3.183,3.183,0,0,1,2.778-.99l-.55.633h0Zm-7.152,2.421A7.917,7.917,0,0,0,88.389,63.9a.419.419,0,0,0,.33-.193,1.382,1.382,0,0,0,.22-.33c.825-.193,1.073-1.65,2.283-1.073.22.413-.083.688-.275.99a15.1,15.1,0,0,0-2.586,2.366c-.385.248-.99.055-1.128.688-.193.908-1.018.5-1.238.33-.523-.44.275-.605.385-.963Zm7.427-4.456a3.748,3.748,0,0,1-.385.3.764.764,0,0,1-.5.083,3.619,3.619,0,0,1-3.6-3.3,3.736,3.736,0,0,0-.605-2.008,9.159,9.159,0,0,1-.688-2.393A10.071,10.071,0,0,1,91.8,57.983,4.9,4.9,0,0,0,93.505,60.4c.248.165.578.468.33.853h0Zm1.953,3.383c.468-.275.413.358.66.5-.193.715-.3,1.54-1.375.8-.33-.743.248-1.018.715-1.293Zm1.018-.963c.248-.055.55-.413.715-.11a1.116,1.116,0,0,1,.11.523,1.16,1.16,0,0,1-.083.523c-.193.44-.523.083-.77-.083a.831.831,0,0,1-.138-.44.625.625,0,0,1,.165-.44h0Zm.935,1.733c.715.055.385.743.578,1.073,0,.44-.083.908-.578.853-.633-.11-.385-.77-.5-1.183,0-.083-.055-.165,0-.248a.875.875,0,0,1,.083-.248.37.37,0,0,1,.193-.165.409.409,0,0,1,.248-.055h0Zm1.513.605c-.578,0-.5-.688-.55-1.1v-.358a1.138,1.138,0,0,1,.165-.3,1.077,1.077,0,0,1,.275-.22.733.733,0,0,1,.33-.083c.633,0,.385.743.605,1.1a.984.984,0,0,1-.853.99h.028Zm-30.5-24.178,3.713-5.859a1.3,1.3,0,0,1,1.238-.578c6.739-.028,13.505-.055,20.244-.138a2.077,2.077,0,0,1,2.063,1.128c.935,1.65,2.008,3.218,3.136,5.006-10.177.385-20.134.55-30.367.44h-.028ZM68.53,63.044c-.605.083-1.1.605-1.705.66h-.275c.11.248-.358.88.468.633a6.112,6.112,0,0,0,1.9-.935c.358.11.825.138.8.66,0,.385-.44.275-.66.385q-1.9.908-3.878,1.65c.8-.8.468-2.063,1.32-2.833.33-.33.715-.605,1.073-.908.853-.55,1.128-.22.99.66H68.53Zm-.385,2.476a.338.338,0,0,1,.138-.055h.138a1.1,1.1,0,0,1,.11.083.21.21,0,0,1,.055.138c.11.275-.11.468-.3.578-.99.578-2.008,1.073-3,1.65-.468.275-1.1.413-1.293,1.1.935.33,1.375-.77,2.228-.688,0,1.733-1.98,1.733-2.558,2.751.11.77,1.485-.468,1.1.908-.165.578-.44.908-.99.44a5.471,5.471,0,0,0-2.558-1.1c1.155-1.293,1.953-2.723,3.026-3.8a14.514,14.514,0,0,1,3.906-1.98h0Zm2.09-42.882q6.271-10.026,12.6-20.052c.083-.165.22-.275.468-.633.715,1.045,1.4,1.98,2.035,2.971C93.643,17.8,102,30.642,110.2,43.542c4.649,7.317,9.49,14.468,13.946,21.922a13.847,13.847,0,0,0,1.375,2.311,1.016,1.016,0,0,1,.193.385.744.744,0,0,1-.083.413c-.935,1.98-1.843,3.988-2.916,6.3-3.053-4.649-5.941-8.967-8.774-13.34q-8.458-13.079-16.834-26.186c-4.071-6.354-8.087-12.763-12.13-19.144-.688-1.073-1.155-1.1-1.815-.028q-7.55,12.048-15.046,24.068C63.056,48.3,57.94,56.3,52.906,64.392c-2.366,3.823-4.841,7.564-7.289,11.332-.633.963-.908.688-1.293-.138-.825-1.9-1.623-3.768-2.531-5.611a1.912,1.912,0,0,1,.193-1.98q14.152-22.651,28.276-45.3h0v-.055h-.028ZM17.2,37.381c-.523-1.045-.193-1.32.88-1.32H38.631c6.849,0,13.423-.275,20.134-.275.413,0,.963-.193,1.183.193s-.275.77-.468,1.128c-.66,1.155-1.348,2.311-2.008,3.466a2.412,2.412,0,0,1-2.255,1.348c-6.464.055-12.928.385-19.392.358a31.891,31.891,0,0,1-8.252-.3.785.785,0,0,0-.358,0,.437.437,0,0,0-.275.22.48.48,0,0,0-.11.33.507.507,0,0,0,.138.33A44.764,44.764,0,0,1,32,52.591C34.477,57.6,36.788,62.686,39.126,67.8q7.179,15.843,14.3,31.687c.44.99.11,1.485-1.018,1.513h-.44c-1.705-.11-3.741.8-5.006-.275-1.155-.963-1.513-2.916-2.228-4.428-2.971-6.271-6.079-12.46-8.912-18.787-2.751-6.216-5.666-12.323-8.417-18.539-.853-1.953-1.513-4.071-2.476-5.886-1.238-2.393-2.338-4.9-3.686-7.262-1.568-2.668-2.613-5.611-4.016-8.389h0v-.055H17.2Zm-3.438,70.36a2.685,2.685,0,0,1-1.21,1.375A68.608,68.608,0,0,1,9.5,93.85a36.842,36.842,0,0,1-.5-5.5,1.568,1.568,0,0,1,.028-.358.54.54,0,0,1,.248-.248c1.678-.77,2.586-2.531,4.291-3.218.165-.083.44-.165.468-.3.44-1.375,1.76-.33,2.5-.935.165.138.33.3.5.468,1.32-.523.935.578.77.963a7.153,7.153,0,0,1-1.293,1.705c-.248.275-.908.523-.413.963.44.413.8-.165.99-.468.8-1.183,2.145-1.9,2.255-3.713.083-1.155,1.43-2.173,2.586-2.888.523-.083.66.083.5.44,0,.055-.055.11-.11.165-.55.715-1.183,1.375-1.65,2.118a2.764,2.764,0,0,0-.44.66c-.138.275-.083.605.605.853a.3.3,0,0,1,.248.358.1.1,0,0,1-.028.083,1.38,1.38,0,0,1-.385.413c-.33.22-.825.193-1.018.66a5.006,5.006,0,0,0-1.485,1.458,9.029,9.029,0,0,0-.743,1.045l-.055.11c-.11.275-.165.688.248.66.523-.055.715.853,1.238.33a.4.4,0,0,0,.165-.248v-.413a.97.97,0,0,0-.22-.358,4.451,4.451,0,0,1-.275-.5l1.54-1.705c.468.44,1.6.5,1.1,1.54a.6.6,0,0,1-.138.22c0,.028-.028.055-.055.083-.165.385.275.55.715.385.385-.165.77-.358,1.128-.55a8,8,0,0,0,2.228-1.458.7.7,0,0,0,.3-.33V86.2s0-.11-.055-.138c-.22-.358-.5-.138-.715,0-.55.385-1.073.8-1.6,1.21-.275.22-.578.413-.77-.083,1.623-1.843,2.586-4.208,4.4-5.941.3-.083.715-.523.8.22a1.413,1.413,0,0,1-.11.825,3.848,3.848,0,0,1-.44.715c-.55.77-1.513,1.183-1.953,2.228a5.156,5.156,0,0,0,2.971-2.558,2.368,2.368,0,0,0,.275-1.045c0-.77.055-1.815-.5-2.008s-1.045.743-1.458,1.293c-.523-.138-.413.8-1.073.523a1.4,1.4,0,0,1,.083-.578,5.539,5.539,0,0,1,.605-.8.988.988,0,0,0,.193-.275.235.235,0,0,0,0-.193c0-.055-.055-.11-.083-.165-.275-.33-.523-.055-.715.138-.523.55-.99,1.155-1.513,1.705-.33.33-.523.963-1.238.715l.66-1.293c.22-.193.55-.578.385-.66-1.513-.743-.083-1.183.193-1.623.578-.825,1.265-1.568,1.9-2.338a.977.977,0,0,0,.11-.248v-.275a1.1,1.1,0,0,0-.083-.11c-.055-.028-.083-.055-.138-.055h-.138a1.1,1.1,0,0,0-.11.083c-.715,1.4-2.833.33-3.411,2.035-.193-1.128.605-1.568,1.128-2.173.275-.33.55-.66.8-1.018.413-.66.8-1.293,1.4-.11a.78.78,0,0,0,.99.5.9.9,0,0,0,.413-.3c.853-.8,1.43-.44,2.035.385a7.434,7.434,0,0,0,5.391,3.081,93.8,93.8,0,0,1-5.776,7.812,33.761,33.761,0,0,0-3.878,5.584C23.227,92.75,22.155,94.4,21.082,96c-2.641,3.823-5.034,7.784-7.344,11.8h0l.055-.055Zm3.383.248c5.831-9.38,11.69-18.759,17.494-28.166a1.923,1.923,0,0,1,.468-.358c1.128,2.421,2.2,4.814,3.3,7.179.193.44,0,.66-.193,1.018-2.448,4.1-5.034,8.114-7.7,12.1a13.945,13.945,0,0,0-1.1,1.98c-.44.99.248,1.678,1.568,1.623,3.3-.138,6.6-.33,9.9-.44,9.435-.22,18.869-.385,28.3-.55.358,0,.825-.193,1.045.22s-.248.688-.44.99c-.963,1.54-1.623,3.6-3.026,4.428-1.348.8-3.466.3-5.226.33-7.234.083-14.468.468-21.675.55-7.317.083-14.661.193-21.977.248-.963,0-1.4-.055-.743-1.128h0Zm9.737,18.319c-.55.275-.605-.275-.8-.55-.385-.66-.77-1.32-1.128-2.008a2.642,2.642,0,0,0-1.705-1.54,1.184,1.184,0,0,1-.963-1.375.863.863,0,0,1,.165-.44c.413-.77,1.045-.523,1.6-.083.358.275.605.578,1.045.138s.99-.935.88-1.705a1.027,1.027,0,0,0-.33-.715,1.12,1.12,0,0,0-.688-.358,2.91,2.91,0,0,0-2.09.3c-.853.468-1.155-.11-1.375-.688-.248-.715.5-.66.853-.77,2.476-.77,4.511.523,4.511,2.806a2.764,2.764,0,0,1-.33,1.32,2.7,2.7,0,0,1-.908,1.018c-.523.385-.5.688-.193,1.183.523.8.963,1.65,1.43,2.476.193.33.468.715-.055.963h.083Zm4.566-2.366a3.3,3.3,0,0,1-3.3-3.356V120.5a3.078,3.078,0,0,1,2.943-3.218h.33a3.206,3.206,0,0,1,3.3,3.136v.248a3.287,3.287,0,0,1-3.3,3.3h0Zm10.067,2.2c-.605.523-.8.083-1.073-.33a13.631,13.631,0,0,0-.935-1.265c-.44-.55-.8-1.183-1.65-.33a.931.931,0,0,1-1.348,0,.893.893,0,0,1-.275-.5,1.309,1.309,0,0,1,.66-1.733c.083-.028.138-.055.22-.083.33-.11.853.055.908-.5s-.5-.468-.8-.605a1.86,1.86,0,0,1-.88-.715,2.2,2.2,0,0,1-.385-1.073c-.055-.853,0-1.705,0-2.668,1.293.193,1.128,1.073,1.183,1.87.055.605-.413,1.54.523,1.678.99.138,1.045-.88,1.375-1.568.22-.44-.413-1.375.578-1.293s.935.853.715,1.623a1.94,1.94,0,0,1-.165.688,3.778,3.778,0,0,0,.8,5.281,2.744,2.744,0,0,0,.523.33c.468.3.5.688,0,1.128h.028Zm8.747-8.362c-.275.275-.55.55-.8.825-.853.853-2.008,1.43-.715,3.026.853,1.045-.22,2.421-1.623,2.393a2.043,2.043,0,0,1-1.953-2.09,1.967,1.967,0,0,1,.44-1.183c.5-.8.248-1.128-.275-1.623s-1.1-1.073-1.623-1.623c-.248-.248-.715-.468-.33-.935s.66,0,.935.248c.825.8,1.6,2.118,2.5,2.228.963.11,1.65-1.375,2.5-2.145.385-.33.633-.33.963,0,.275.3.33.55,0,.853h0Zm2.008-7.592h5.309c.605,0,.825.275,1.045.77.77,1.76,1.568,3.466,2.366,5.226.165.385.385.743.083,1.21-1.155,1.815-2.311,3.6-3.658,5.749-1.98-4.236-3.823-8.169-5.639-12.1-.275-.578-.083-.8.5-.8h0v-.055Zm48.3,29.982c-4.456,9.572-8.884,19.172-13.56,28.634l-4.043,8.252a1.118,1.118,0,0,1-.66.66c-.825-1.76-1.678-3.493-2.5-5.254-4.318-9.27-8.637-18.567-12.955-27.809-.77-1.705-1.485-3.411-2.311-5.089-.523-1.018-.138-1.21.8-1.238,1.485,0,2.971-.11,4.456-.193a2.481,2.481,0,0,1,1.1.248,1.739,1.739,0,0,1,.715.88c2.283,5.914,5.391,11.442,7.784,17.274a25.474,25.474,0,0,1,2.145,5.226,3.9,3.9,0,0,0,.935,1.458c.248.275.605.193.853-.11a8.023,8.023,0,0,0,1.485-2.09c3.053-6.794,6.134-13.588,9.159-20.409.99-2.255.963-2.255,3.493-2.09.715.055,1.43,0,2.145.055,1.6.055,1.623.083.935,1.568h0Zm14.633-4.814c-.055,2.338,0,2.311-2.338,2.338-2.063,0-4.071-.523-6.161-.523-3.191-.055-6.381-.33-9.572-.44a59.038,59.038,0,0,0-7.317-.083,9.837,9.837,0,0,0-4.7,1.54c-.66.44-1.128.605-1.815-.138a5.876,5.876,0,0,0-4.7-1.733c-5.721.22-11.47.138-17.191.578-2.558.193-5.144.165-7.729.523-.55.083-1.293.193-1.265-.688.028-.77-.743-1.925.77-2.2a61.43,61.43,0,0,1,8.994-.825c5.364-.165,10.7-.33,16.064-.523a3.86,3.86,0,0,1,4.1,2.255,1.327,1.327,0,0,0,2.338.11,5.148,5.148,0,0,1,2.09-1.733,5.259,5.259,0,0,1,2.668-.5c4.979.248,9.957-.33,14.908.193,3.328.33,6.656.578,9.985.77.8,0,.908.3.88,1.045h0Zm7.812-15.623c0,.385.165.963-.468.99-.77.055-.578-.605-.605-1.045v-5.061l-1.76.908c-.275-.55-.22-.908.3-1.21.358-.248.715-.5,1.045-.77.44-.275.633-1.21,1.265-.88.5.275.193,1.045.193,1.6v5.446h0Zm7.262-.083a2.455,2.455,0,0,1-2.668,1.265,1.709,1.709,0,0,1-1.073-.385,2.055,2.055,0,0,1-.688-.908c-.11-.248-.275-.578.055-.77.248-.138.605-.193.77.083.44.8.99,1.348,1.953.908s1.073-1.348,1.183-2.311c-2.751,1.073-4.594-.083-4.263-2.613a2.58,2.58,0,0,1,2.723-2.421,2.61,2.61,0,0,1,2.255,1.623,6.147,6.147,0,0,1,.523,2.806,5.726,5.726,0,0,1-.743,2.751h0Zm6.326-.055a2.454,2.454,0,0,1-2.668,1.32,1.9,1.9,0,0,1-1.073-.33,1.86,1.86,0,0,1-.715-.88c-.11-.248-.44-.633.055-.853.248-.11.633-.165.77.138.385.8.935,1.265,1.815.935,1.045-.413,1.1-1.43,1.43-2.668-1.293.935-2.338,1.128-3.383.413A2.7,2.7,0,0,1,131.794,115a2.589,2.589,0,0,1,2.778-2.393,2.548,2.548,0,0,1,2.145,1.458,6.819,6.819,0,0,1-.165,5.584h0l.055-.055Zm6.629-5.776a13.458,13.458,0,0,0-2.778,6.491c-.055.468-.358.523-.715.5-.5-.055-.44-.413-.413-.743a11.617,11.617,0,0,1,1.733-4.924c.248-.385.5-.77.88-1.348h-2.888c-.385,0-.935.138-.908-.55,0-.578.5-.468.853-.5h3.576c.99,0,1.155.468.66,1.128h0v-.055Zm5.474-7.014c-9.627.33-19.254.66-28.854.908-3.6.083-7.179,0-10.782,0v.138h-8.5a2.248,2.248,0,0,1-2.145-1.1c-.825-1.293-1.733-2.531-2.558-3.8-.22-.33-.743-.633-.468-1.1.22-.358.715-.193,1.073-.22,3.6-.083,7.179-.138,10.782-.248,9.82-.248,19.639-.55,29.459-.468,1.9,0,2.338-.77,1.265-2.421q-3.342-5.2-6.794-10.287a14.052,14.052,0,0,0-1.87-3c-.385-.33-.22-.935.055-1.43.853-1.65,1.678-3.328,2.393-5.061.5-1.183.908-.963,1.458-.11,1.485,2.393,2.971,4.814,4.456,7.207,4.043,6.381,8.252,12.653,12.075,19.172.963,1.623.908,1.705-1.045,1.76h0v.055Zm7.454-15.156a72.807,72.807,0,0,1-2.421,14.386c-.083.3,0,.77-.468.77a.935.935,0,0,1-.743-.605c-3.081-5.556-6.959-10.645-10.232-16.091a26.88,26.88,0,0,0-2.5-3.823,6.6,6.6,0,0,1-1.183-5.144,2.991,2.991,0,0,0,0-.99c-.055-.248-.11-.605-.5-.55-.33.055-.275.358-.275.578v2.5c-1.843-1.1-1.183-2.255-.688-3.466.165-.413.688-.88.275-1.293s-1.293.11-1.623-.66c-.825.468-.165,1.21-.358,1.925-1.32-.908-1.54-2.338-2.09-3.658A14.22,14.22,0,0,1,141.421,79a3.394,3.394,0,0,1,.605.8,5.134,5.134,0,0,0,4.593,2.7c1.1.083,2.008-.055,1.925,1.513-.055.715.44,1.43.248,2.421-.77-.77-2.2-.715-2.063-2.228v-.138s-.055-.083-.083-.138-.083-.055-.11-.083a.206.206,0,0,0-.138-.028.5.5,0,0,0-.275.055.289.289,0,0,0-.138.248c-.248.908-.5,1.843-.743,2.751v.275a1.1,1.1,0,0,0,.083.11.21.21,0,0,0,.138.055h.193a.2.2,0,0,0,.165-.055c.055-.028.083-.083.138-.138,0-.055.055-.11.055-.165.248-1.6,1.018-.77,1.623-.33.66.468,1.183,1.348,2.2.578.165-.138.3.055.44.22.55.743.743.358.743-.275a5.579,5.579,0,0,1,.248-2.338c1.073,1.073.825,2.668,1.87,3.658.853.8,1.265,2.173,2.7,2.366.468.055.385.44.358.77h0l-.055.055h0Z" transform="translate(13.497 0)" fill="#4169e1"/>
        <path id="Path_147" data-name="Path 147" d="M35.248,21.906c-.275.193-.908-.138-1.073.248a.874.874,0,0,0-.055.385c.055.688.688.578,1.073.633a.544.544,0,0,0,.3-.055.489.489,0,0,0,.193-.22,2.284,2.284,0,0,0,.165-.578c-.055-.44-.275-.66-.66-.413Z" transform="translate(59.734 38.167)" fill="#4169e1"/>
        <path id="Path_148" data-name="Path 148" d="M31.373,24.81a2.636,2.636,0,0,0-.743.908,1.91,1.91,0,0,0,.138,1.348,3.847,3.847,0,0,0,.44-.715,4.821,4.821,0,0,0,.165-1.54h0Z" transform="translate(53.515 43.432)" fill="#4169e1"/>
        <path id="Path_149" data-name="Path 149" d="M24.408,28.82a1.35,1.35,0,0,0-.275.11.742.742,0,0,0-.193.22v.275a2.2,2.2,0,0,0,.165.22c.935.88,1.925,1.733,2.916,2.558.248.22.468.193.605,0a.465.465,0,0,0,.083-.275,14.055,14.055,0,0,0-3.3-3.081h0Z" transform="translate(41.913 50.452)" fill="#4169e1"/>
        <path id="Path_150" data-name="Path 150" d="M31.78,31.559a11.106,11.106,0,0,1-3-3,8.414,8.414,0,0,0-2.5-1.76c-.138.11-.33.193-.385.358-.138.33.138.55.385.66a8.189,8.189,0,0,1,3.466,3.3,6.1,6.1,0,0,0,1.54,1.238c.248.193.523.275.77,0,.028-.055.055-.083.083-.138.165-.3-.055-.523-.33-.66H31.78Z" transform="translate(45.268 46.916)" fill="#4169e1"/>
        <path id="Path_151" data-name="Path 151" d="M34.286,24.191c.275-1.568.193-1.925-.66-2.531A3.61,3.61,0,0,0,34.286,24.191Z" transform="translate(58.825 37.918)" fill="#4169e1"/>
        <path id="Path_152" data-name="Path 152" d="M31.992,22.82s-.055.11-.028.165c0,.358.275.44.578.468h.248s.138-.11.193-.165c0-.055.055-.11.055-.193-.083-.33-.385-.385-.66-.385-.138,0-.275,0-.358.138h-.028Z" transform="translate(55.948 39.756)" fill="#4169e1"/>
        <path id="Path_153" data-name="Path 153" d="M32.584,25.287a.684.684,0,0,0-.138.193c-.055.193.138.358.275.523A4.226,4.226,0,0,1,33.9,28.368c0,.358.33.248.55.248.385-1.375-.688-2.228-1.183-3.3-.22,0-.523-.138-.66-.028h0Z" transform="translate(56.787 44.193)" fill="#4169e1"/>
        <path id="Path_154" data-name="Path 154" d="M37.53,24.62l.165.11S37.613,24.62,37.53,24.62Z" transform="translate(65.704 43.1)" fill="#fff"/>
        <path id="Path_155" data-name="Path 155" d="M52.454,41.309a1.4,1.4,0,0,0-.8.22,1.085,1.085,0,0,0-.523.633,2.554,2.554,0,0,0-.165,1.018,1.411,1.411,0,0,0,1.238,1.6h.385a1.416,1.416,0,0,0,1.265-.853,3.047,3.047,0,0,0,.22-.99c-.165-.908-.5-1.705-1.6-1.65h0Z" transform="translate(89.206 72.263)" fill="#4169e1"/>
        <path id="Path_156" data-name="Path 156" d="M54.834,41.294a1.234,1.234,0,0,0-.825.193,1.529,1.529,0,0,0-.578.605,2.059,2.059,0,0,0-.193.99,1.511,1.511,0,0,0,1.293,1.678h.248a1.846,1.846,0,0,0,.77-.165,1.331,1.331,0,0,0,.523-.578,2.888,2.888,0,0,0,.22-.963c-.055-.963-.358-1.76-1.43-1.76h-.027Z" transform="translate(93.18 72.278)" fill="#4169e1"/>
        <path id="Path_157" data-name="Path 157" d="M13.393,32.988a8.6,8.6,0,0,0-2.255,1.98.1.1,0,0,1-.028.083.409.409,0,0,0,.055.248.28.28,0,0,0,.22.138,8,8,0,0,0,2.338-2.063V33.29s-.083-.165-.138-.248a.444.444,0,0,0-.248-.083h.055Z" transform="translate(19.453 57.7)" fill="#4169e1"/>
        <path id="Path_158" data-name="Path 158" d="M44.675,26.22a.753.753,0,0,0-.11.138c0,.055-.055.11-.055.193.605.5,1.045,1.21,1.925,1.293a1.927,1.927,0,0,0,.275-.22c-.715-.523-1.1-1.348-2.063-1.4h.028Z" transform="translate(77.923 45.901)" fill="#4169e1"/>
        <path id="Path_159" data-name="Path 159" d="M33.331,28.561a4.257,4.257,0,0,0,.22-.413c.248-.605.275-1.265.5-1.87.33-.88.055-1.348-.8-1.568a3.331,3.331,0,0,0-1.238,1.513c-.248.578-.44,1.238-.66,1.843-.138.33-.083.66.44.853a9.156,9.156,0,0,1,.578-1.733,7.384,7.384,0,0,1,1.128-1.76c-.193,1.045-.33,1.733-.468,2.421a1.4,1.4,0,0,0-.248.44c-.275.605-.193,1.1.8,1.375a2.663,2.663,0,0,1,.853.5c.413.275,1.1.523.77,1.155-.385.8-.853.055-1.293-.083-.22-.11-.44-.22-.633-.33-.44-.138-.935-.935-1.293-.3-.248.44.55.77.963,1.045a1.681,1.681,0,0,0,.385.193c1.018.358,1.65.88,1.1,1.953,0,.083-.083.138-.138.22,0,.055-.083.11-.11.165-.083.193-.138.413.193.523s.5-.083.605-.33c0-.028,0-.083.055-.083.44-1.045.853-2.118,1.265-3.191.193-.468-.275-.66-.44-.99l-2.531-1.6h0v.055Z" transform="translate(54.774 43.257)" fill="#4169e1"/>
        <path id="Path_160" data-name="Path 160" d="M32.563,23.87,30.72,30.636l.468.138,1.6-4.924C32.838,25.19,33.718,24.42,32.563,23.87Z" transform="translate(53.782 41.787)" fill="#4169e1"/>
        <path id="Path_161" data-name="Path 161" d="M31.775,27.446c-.248-.028-.468,0-.55.193a.647.647,0,0,0-.055.22c0,.358.358.385.633.385s.5.083.633-.138c0-.055.028-.083.055-.138-.083-.413-.385-.5-.715-.523h0Z" transform="translate(54.57 48.031)" fill="#4169e1"/>
        <path id="Path_162" data-name="Path 162" d="M46.05,26.48a.338.338,0,0,0,.138.055l-.248-.165s.055.083.083.138h.028Z" transform="translate(80.426 46.163)" fill="#fff"/>
        <path id="Path_163" data-name="Path 163" d="M55.828,30.07a3.165,3.165,0,0,0-.275,1.43c0,.248.11.5.385.5a.554.554,0,0,0,.413-.248h0c-.055-.853.66-1.6.358-2.558a2.26,2.26,0,0,0-.853.908h-.027Z" transform="translate(97.247 51.1)" fill="#4169e1"/>
        <path id="Path_164" data-name="Path 164" d="M57.035,29.47c-.138.248-.248.468-.358.715a4.709,4.709,0,0,0-.385,2.035c0,.385.193.633.605.605a.782.782,0,0,0,.523-.248v-.11c-.715-.853.33-1.9-.385-3h0Z" transform="translate(98.543 51.59)" fill="#4169e1"/>
        <path id="Path_165" data-name="Path 165" d="M58.724,30.276c-.22-.055-.413-.028-.5.193v.11a15.8,15.8,0,0,0-1.183,3.713c0,.468-.165.77.165.963.055,0,.083.055.11.055h.138s.083,0,.11-.055.055-.055.083-.11v-.055a8.9,8.9,0,0,1,.99-3.136l.5-.99c.138-.275,0-.55-.358-.633h0v-.055h-.055Z" transform="translate(99.797 52.958)" fill="#4169e1"/>
        <path id="Path_166" data-name="Path 166" d="M35.373,28.709a2.483,2.483,0,0,1-.138-1.1c.055-.413,0-1.045-.5-1.018a1.6,1.6,0,0,0-.715.165,1.2,1.2,0,0,0-.523.523c0,.083-.055.138-.083.22a2.991,2.991,0,0,0,0,.99h-.11a13.846,13.846,0,0,0,.275,1.54c.083.275.3.8.633.413.44-.523.605-.028.935.055s.523.55.825.138c0-.028.055-.083.055-.11a.816.816,0,0,0,.055-.44A.578.578,0,0,0,35.9,29.7a3.04,3.04,0,0,1-.605-.935h0l.083-.055Z" transform="translate(58.316 46.548)" fill="#4169e1"/>
        <path id="Path_167" data-name="Path 167" d="M51.338,30.3c0-.22.055-.523-.083-.66-1.1-1.375-2.888-1.4-4.291-2.228l-.358.248a22.511,22.511,0,0,1-5.061,2.888h-.138l-.11.055c-.22,1.21-1.485,1.183-2.2,1.815-.468.413-.55-.468-.908-.633a.829.829,0,0,0-.935,0c-.055,0-.083.055-.11.083A.21.21,0,0,0,37.09,32v.138s.027.11.083.138c.578.605,1.485,1.32,2.09.99A7,7,0,0,0,41.9,31.453a3.729,3.729,0,0,1,2.421-1.1,2.236,2.236,0,0,1,1.045.11,2,2,0,0,1,.853.66c.5.66-.275.88-.5,1.32s-.468.825-.66,1.265l-.083.248a.409.409,0,0,0,.055.248c0,.083.083.138.138.193a.553.553,0,0,0,.22.11h.248a.34.34,0,0,0,.22-.11.6.6,0,0,0,.138-.22v-.248c-.275-.853.385-1.238.77-1.705.248-.33.523-1.045,1.1-.605.5.385-.193.715-.33,1.073-.165.468-.743.99,0,1.32.66.3.853-.385,1.018-.853s.33-1.265,1.1-.853c.715.385.055.8-.165,1.155-.138.248-.33.55-.055.77s.523-.083.66-.275A35.814,35.814,0,0,0,52.053,30.9c.5-.963-.193-.743-.715-.578h0Zm-3.493-.55c-.77,1.155-1.43.193-2.283,0,.688-1.045,1.43-1.375,2.366-.8.44.275.083.578-.083.825h0Zm1.1,1.1c-.275.055-.715-.138-.66-.358A1.325,1.325,0,0,1,49.3,29.445a1.287,1.287,0,0,1,.468.055,1.03,1.03,0,0,1,.33.358,1.632,1.632,0,0,1-1.155.963h0Zm2.393-.385c-.083.523-.193.99-.77,1.183-.083.028-.358-.248-.358-.358a.614.614,0,0,1,.083-.385,1.222,1.222,0,0,1,.22-.3.8.8,0,0,1,.33-.193.874.874,0,0,1,.385-.055h0v.055h.055v.083h.055Z" transform="translate(64.934 47.984)" fill="#4169e1"/>
        <path id="Path_168" data-name="Path 168" d="M35.5,23.986c-.248-1.1.248-2.09.11-3.108-.055-.358.083-.935-.44-.908-.22,0-.3.055-.33.138-.083.193.138.523.11.743s.138.468.055.688c0,.083-.083.138-.165.193-.55-.028-.825-.908-1.733-.358a19.753,19.753,0,0,1,2.421,2.613H35.5Z" transform="translate(57.966 34.959)" fill="#4169e1"/>
        <path id="Path_169" data-name="Path 169" d="M42.436,29.26v-.193s-.028-.11-.083-.138c-.055-.055-.083-.083-.138-.083s-.11-.028-.165-.028a.2.2,0,0,0-.165.055,12.2,12.2,0,0,0-3.053,2.255c-.055.028-.083.055-.083.11v.193a.754.754,0,0,0,.11.193,1.136,1.136,0,0,0,.3.193.86.86,0,0,0,.275-.138,16.328,16.328,0,0,1,2.888-2.255.275.275,0,0,0,.11-.138h0Z" transform="translate(67.84 50.452)" fill="#4169e1"/>
        <path id="Path_170" data-name="Path 170" d="M32.128,23.321a4.5,4.5,0,0,0,2.338.055c-.385-.33-.825-.468-.66-.88,0-.055.083-.138.11-.193s.055-.083.083-.138c.083-.275-.275-.468-.523-.578-.055,0-.11-.028-.165,0a.151.151,0,0,0-.138.083v.22c.165.385.165.605.11.715-.138.248-.715-.028-1.018,0-.193,0-.44,0-.523.193a.165.165,0,0,1-.028.11c-.055.3.193.385.44.413h0Z" transform="translate(55.51 37.77)" fill="#4169e1"/>
        <path id="Path_171" data-name="Path 171" d="M33.788,22.693a.753.753,0,0,0,.11-.138.848.848,0,0,0,0-.523c-.138-.523-.248-1.045-.77-1.293h-.193a.791.791,0,0,0-.165.11c-.165.523.358.853.468,1.293.083.248.165.55.55.55Z" transform="translate(57.316 36.307)" fill="#4169e1"/>
        <path id="Path_172" data-name="Path 172" d="M35.623,19.5a.4.4,0,0,0-.11-.055h-.138a2.419,2.419,0,0,0-.275.138.5.5,0,0,0-.165.248c0,.055-.055.138-.055.193a.318.318,0,0,0,.33.33h.028a.859.859,0,0,0,.44-.44c0-.055.055-.138.055-.193v-.138a1.1,1.1,0,0,0-.083-.11h-.028Z" transform="translate(61.065 34.032)" fill="#4169e1"/>
        <path id="Path_173" data-name="Path 173" d="M35.263,18.44c-.22.578.055,1.265-.165,1.815a1.034,1.034,0,0,1-.413.5c-.138.248-.275.523-.385.77.248.138.5.248.688-.11a5.037,5.037,0,0,0,.715-.99,1.712,1.712,0,0,0,.138-1.045,1.636,1.636,0,0,0-.55-.908h0Z" transform="translate(60.049 32.281)" fill="#4169e1"/>
        <path id="Path_174" data-name="Path 174" d="M34.585,19.811c-.138-.248-.358-.523-.605-.248,0,.028-.055.055-.083.083-.138.193.083.385.3.523l.578.578c.165.33.358.825.77.468,0-.028.083-.083.083-.11.138-.275-.22-.523-.44-.743-.055-.193-.083-.385-.138-.55h-.468Z" transform="translate(59.269 34.046)" fill="#4169e1"/>
        <path id="Path_175" data-name="Path 175" d="M15.284,30.672c-.248-.22-.44.055-.578.193l-2.7,2.531c-.248.248-.55.77-.908.468-.715-.578-.99.083-1.43.33-1.238.633-.853,1.87-1.1,2.888a1.048,1.048,0,0,1-.083.275,12.179,12.179,0,0,0,3.191-2.366,29.7,29.7,0,0,0,3.548-3.658c.055-.22.3-.44.083-.66h-.028Z" transform="translate(14.866 53.551)" fill="#4169e1"/>
        <path id="Path_176" data-name="Path 176" d="M15.171,32.779c-.385-.358-.605.055-.77.275-.385.578-.743,1.183-1.1,1.788a3.7,3.7,0,0,0-.605.853,2.718,2.718,0,0,0-.275,1.238,2.828,2.828,0,0,0,1.128-1.348c.055-.083.083-.193.138-.275l1.375-1.788s.165-.248.248-.358a.3.3,0,0,0,0-.22.186.186,0,0,0-.11-.165h-.028Z" transform="translate(21.746 57.138)" fill="#4169e1"/>
        <path id="Path_177" data-name="Path 177" d="M11.173,33.06a.3.3,0,0,0-.3.248v.138c.028.193.11.44.22.468.3.083.385-.193.385-.44,0-.193-.055-.385-.33-.385h0Z" transform="translate(19.033 57.875)" fill="#4169e1"/>
        <path id="Path_178" data-name="Path 178" d="M18.076,43.022c-.8-.055-1.733.77-2.2,1.705a2.459,2.459,0,0,0-.3,1.32,1.472,1.472,0,0,0,1.348,1.568h.3A2.9,2.9,0,0,0,19.616,44.7a1.532,1.532,0,0,0-1.348-1.678h-.193Z" transform="translate(27.258 75.309)" fill="#4169e1"/>
        <path id="Path_179" data-name="Path 179" d="M21.815,44.82a1.211,1.211,0,0,0-.055.44.741.741,0,0,0,.138.413c.055.055.083.11.165.138a.7.7,0,0,0,.193.055h.22a.605.605,0,0,0,.165-.138.977.977,0,0,0,.3-.44c.165-.44-.028-.88-.468-1.348a5.253,5.253,0,0,0-.66.88h0Z" transform="translate(38.097 76.921)" fill="#4169e1"/>
      </g>
    </g>
  </g>
</svg>
